<svg width="51" height="51" viewBox="0 0 51 51" fill="none" xmlns="http://www.w3.org/2000/svg">
<path d="M42.1667 6.75H8.83333C8.2808 6.75 7.75089 6.96949 7.36019 7.36019C6.96949 7.75089 6.75 8.2808 6.75 8.83333V42.1667C6.75 42.7192 6.96949 43.2491 7.36019 43.6398C7.75089 44.0305 8.2808 44.25 8.83333 44.25H42.1667C42.7192 44.25 43.2491 44.0305 43.6398 43.6398C44.0305 43.2491 44.25 42.7192 44.25 42.1667V8.83333C44.25 8.2808 44.0305 7.75089 43.6398 7.36019C43.2491 6.96949 42.7192 6.75 42.1667 6.75ZM17.8729 38.7021H12.3062V20.8062H17.8729V38.7021ZM15.0896 18.3625C14.2343 18.3625 13.414 18.0227 12.8092 17.4179C12.2044 16.8131 11.8646 15.9928 11.8646 15.1375C11.8646 14.2822 12.2044 13.4619 12.8092 12.8571C13.414 12.2523 14.2343 11.9125 15.0896 11.9125C15.9449 11.9125 16.7652 12.2523 17.37 12.8571C17.9748 13.4619 18.3146 14.2822 18.3146 15.1375C18.3146 15.9928 17.9748 16.8131 17.37 17.4179C16.7652 18.0227 15.9449 18.3625 15.0896 18.3625ZM38.7042 38.7021H33.1437V30C33.1437 27.925 33.1062 25.2563 30.2521 25.2563C27.3562 25.2563 26.9167 27.5187 26.9167 29.8542V38.7042H21.3604V20.8083H26.6937V23.2542H26.7708C27.5104 21.8479 29.3271 20.3646 32.0292 20.3646C37.6625 20.3646 38.7021 24.0687 38.7021 28.8896V38.7021H38.7042Z" fill="white"/>
</svg>
