<svg width="20" height="20" viewBox="0 0 20 20" fill="none" xmlns="http://www.w3.org/2000/svg">
<path d="M17.023 14.977C16.5546 14.5284 16.0988 14.0669 15.656 13.593C15.284 13.215 15.06 12.94 15.06 12.94L12.26 11.603C13.381 10.3316 13.9997 8.69499 14 7C14 3.141 10.86 0 7 0C3.14 0 0 3.141 0 7C0 10.859 3.14 14 7 14C8.763 14 10.37 13.34 11.603 12.261L12.94 15.061C12.94 15.061 13.215 15.285 13.593 15.657C13.98 16.02 14.489 16.511 14.977 17.024L16.335 18.416L16.939 19.062L19.06 16.941L18.414 16.337C18.035 15.965 17.529 15.471 17.023 14.977ZM7 12C4.243 12 2 9.757 2 7C2 4.243 4.243 2 7 2C9.757 2 12 4.243 12 7C12 9.757 9.757 12 7 12Z" fill="#C9C9CA"/>
</svg>
