<svg width="50" height="50" viewBox="0 0 50 50" fill="none" xmlns="http://www.w3.org/2000/svg">
<path d="M21.875 43.75C23.6009 43.75 25 42.3509 25 40.625C25 38.8991 23.6009 37.5 21.875 37.5C20.1491 37.5 18.75 38.8991 18.75 40.625C18.75 42.3509 20.1491 43.75 21.875 43.75Z" fill="#2563EB"/>
<path d="M36.459 43.75C38.1849 43.75 39.584 42.3509 39.584 40.625C39.584 38.8991 38.1849 37.5 36.459 37.5C34.7331 37.5 33.334 38.8991 33.334 40.625C33.334 42.3509 34.7331 43.75 36.459 43.75Z" fill="#2563EB"/>
<path d="M29.1673 29.1458L37.5007 18.7292H31.2507V10.3958H27.084V18.7292H20.834L29.1673 29.1458Z" fill="#2563EB"/>
<path d="M36.0618 31.25H22.2285L12.8743 8.81249C12.5572 8.05221 12.0218 7.40299 11.3358 6.94689C10.6498 6.49079 9.84397 6.24828 9.02018 6.24999H4.16602V10.4167H9.02018L18.916 34.125C19.0723 34.5055 19.3377 34.8311 19.6788 35.061C20.0199 35.2909 20.4214 35.4146 20.8327 35.4167H37.4994C37.919 35.4154 38.3285 35.2875 38.6743 35.0496C39.02 34.8116 39.2858 34.4749 39.4369 34.0833L45.3327 18.75H40.8744L36.0618 31.25Z" fill="#2563EB"/>
</svg>
