<svg width="100" height="100" viewBox="0 0 100 100" fill="none" xmlns="http://www.w3.org/2000/svg">
<path d="M49.9958 30.7375C44.886 30.7375 39.9854 32.7674 36.3722 36.3806C32.759 39.9938 30.7292 44.8944 30.7292 50.0042C30.7292 55.1141 32.759 60.0146 36.3722 63.6278C39.9854 67.241 44.886 69.2709 49.9958 69.2709C55.1057 69.2709 60.0062 67.241 63.6194 63.6278C67.2326 60.0146 69.2625 55.1141 69.2625 50.0042C69.2625 44.8944 67.2326 39.9938 63.6194 36.3806C60.0062 32.7674 55.1057 30.7375 49.9958 30.7375ZM49.9958 62.5167C46.6762 62.5167 43.4925 61.198 41.1452 58.8507C38.7979 56.5033 37.4792 53.3197 37.4792 50C37.4792 46.6804 38.7979 43.4968 41.1452 41.1494C43.4925 38.8021 46.6762 37.4834 49.9958 37.4834C53.3154 37.4834 56.4991 38.8021 58.8464 41.1494C61.1938 43.4968 62.5125 46.6804 62.5125 50C62.5125 53.3197 61.1938 56.5033 58.8464 58.8507C56.4991 61.198 53.3154 62.5167 49.9958 62.5167Z" fill="white"/>
<path d="M70.025 34.5209C72.5057 34.5209 74.5167 32.5099 74.5167 30.0293C74.5167 27.5486 72.5057 25.5376 70.025 25.5376C67.5443 25.5376 65.5333 27.5486 65.5333 30.0293C65.5333 32.5099 67.5443 34.5209 70.025 34.5209Z" fill="white"/>
<path d="M85.5542 25.4624C84.5896 22.9715 83.1155 20.7094 81.2264 18.821C79.3372 16.9326 77.0746 15.4594 74.5833 14.4958C71.6681 13.4014 68.5882 12.8097 65.475 12.7458C61.4625 12.5708 60.1917 12.5208 50.0167 12.5208C39.8417 12.5208 38.5375 12.5208 34.5583 12.7458C31.4475 12.8064 28.3698 13.3983 25.4583 14.4958C22.9664 15.4583 20.7032 16.931 18.8139 18.8196C16.9246 20.7082 15.451 22.9709 14.4875 25.4624C13.3929 28.3775 12.8026 31.4576 12.7417 34.5708C12.5625 38.5791 12.5083 39.8499 12.5083 50.0291C12.5083 60.2041 12.5083 61.4999 12.7417 65.4874C12.8042 68.6041 13.3917 71.6791 14.4875 74.5999C15.4537 77.0906 16.9287 79.3523 18.8185 81.2406C20.7082 83.129 22.9711 84.6023 25.4625 85.5666C28.3685 86.7049 31.4474 87.339 34.5667 87.4416C38.5792 87.6166 39.85 87.6707 50.025 87.6707C60.2 87.6707 61.5042 87.6707 65.4833 87.4416C68.5963 87.3783 71.676 86.788 74.5917 85.6957C77.0823 84.7299 79.3443 83.2554 81.2332 81.3665C83.1222 79.4775 84.5966 77.2156 85.5625 74.7249C86.6583 71.8083 87.2458 68.7332 87.3083 65.6166C87.4875 61.6082 87.5417 60.3374 87.5417 50.1582C87.5417 39.9791 87.5417 38.6874 87.3083 34.6999C87.2598 31.5427 86.6664 28.4176 85.5542 25.4624ZM80.4792 65.1791C80.4523 67.5803 80.014 69.9592 79.1833 72.2124C78.5576 73.8327 77.5997 75.3041 76.3711 76.5319C75.1426 77.7597 73.6707 78.7168 72.05 79.3416C69.8218 80.1684 67.4682 80.6068 65.0917 80.6374C61.1333 80.8207 60.0167 80.8666 49.8667 80.8666C39.7083 80.8666 38.6708 80.8666 34.6375 80.6374C32.2622 80.6083 29.9097 80.17 27.6833 79.3416C26.057 78.7207 24.5792 77.7653 23.3454 76.5372C22.1116 75.3092 21.1493 73.8358 20.5208 72.2124C19.7019 69.9835 19.2638 67.6326 19.225 65.2582C19.0458 61.2999 19.0042 60.1833 19.0042 50.0333C19.0042 39.8791 19.0042 38.8416 19.225 34.8041C19.2519 32.4042 19.6902 30.0267 20.5208 27.7749C21.7917 24.4874 24.3958 21.8999 27.6833 20.6416C29.9108 19.8172 32.2626 19.3789 34.6375 19.3458C38.6 19.1666 39.7125 19.1166 49.8667 19.1166C60.0208 19.1166 61.0625 19.1166 65.0917 19.3458C67.4684 19.3743 69.8223 19.8127 72.05 20.6416C73.6705 21.2677 75.1423 22.2258 76.3707 23.4542C77.5992 24.6827 78.5572 26.1544 79.1833 27.7749C80.0023 30.0039 80.4404 32.3548 80.4792 34.7291C80.6583 38.6916 80.7042 39.8041 80.7042 49.9582C80.7042 60.1082 80.7042 61.1999 80.525 65.1833H80.4792V65.1791Z" fill="white"/>
</svg>
