<svg width="435" height="414" viewBox="0 0 435 414" fill="none" xmlns="http://www.w3.org/2000/svg">
<path d="M391.413 329.95H362.599V330.157H391.413V329.95Z" fill="#EBEBEB"/>
<path d="M288.161 332.202H280.601V332.409H288.161V332.202Z" fill="#EBEBEB"/>
<path d="M361.729 322.266H345.033V322.473H361.729V322.266Z" fill="#EBEBEB"/>
<path d="M83.2155 323.657H45.6402V323.864H83.2155V323.657Z" fill="#EBEBEB"/>
<path d="M96.4743 323.657H90.9672V323.864H96.4743V323.657Z" fill="#EBEBEB"/>
<path d="M195.88 327.151H114.379V327.358H195.88V327.151Z" fill="#EBEBEB"/>
<path d="M206.19 279.698H38.2104C36.8929 279.698 35.6293 279.2 34.6977 278.314C33.7661 277.427 33.2427 276.224 33.2427 274.971V50.2265C33.2541 48.9797 33.7826 47.7878 34.713 46.9101C35.6434 46.0324 36.9004 45.5399 38.2104 45.54H206.19C207.508 45.54 208.771 46.0381 209.703 46.9247C210.634 47.8114 211.158 49.0139 211.158 50.2679V274.971C211.158 276.224 210.634 277.427 209.703 278.314C208.771 279.2 207.508 279.698 206.19 279.698ZM38.2104 45.7056C36.9513 45.7078 35.7444 46.1848 34.854 47.0321C33.9637 47.8795 33.4625 49.0281 33.4602 50.2265V274.971C33.4625 276.169 33.9637 277.317 34.854 278.165C35.7444 279.012 36.9513 279.489 38.2104 279.491H206.19C207.449 279.489 208.656 279.012 209.546 278.165C210.437 277.317 210.938 276.169 210.94 274.971V50.2265C210.938 49.0281 210.437 47.8795 209.546 47.0321C208.656 46.1848 207.449 45.7078 206.19 45.7056H38.2104Z" fill="#EBEBEB"/>
<path d="M394.38 279.698H226.383C225.066 279.696 223.804 279.197 222.873 278.311C221.941 277.425 221.417 276.224 221.415 274.971V50.2265C221.429 48.9804 221.958 47.7897 222.888 46.9125C223.818 46.0352 225.073 45.5421 226.383 45.54H394.38C395.687 45.5443 396.939 46.0386 397.866 46.9159C398.793 47.7931 399.319 48.9826 399.33 50.2265V274.971C399.33 276.222 398.809 277.422 397.881 278.308C396.953 279.194 395.694 279.694 394.38 279.698ZM226.383 45.7056C225.124 45.7078 223.917 46.1848 223.026 47.0321C222.136 47.8795 221.635 49.0281 221.632 50.2265V274.971C221.635 276.169 222.136 277.317 223.026 278.165C223.917 279.012 225.124 279.489 226.383 279.491H394.38C395.639 279.489 396.846 279.012 397.736 278.165C398.626 277.317 399.128 276.169 399.13 274.971V50.2265C399.128 49.0281 398.626 47.8795 397.736 47.0321C396.846 46.1848 395.639 45.7078 394.38 45.7056H226.383Z" fill="#EBEBEB"/>
<path d="M435 316.627H0V316.834H435V316.627Z" fill="#EBEBEB"/>
<path d="M93.0204 317.025H70.7658C69.9454 317.024 69.1557 316.727 68.5565 316.194C67.9572 315.661 67.5933 314.931 67.5381 314.151L64.4844 269.787C64.4496 269.364 64.5072 268.939 64.6537 268.538C64.8003 268.137 65.0325 267.769 65.3357 267.458C65.639 267.147 66.0067 266.899 66.4158 266.73C66.8248 266.561 67.2662 266.474 67.7121 266.475H96.0828C96.5281 266.475 96.9685 266.563 97.3765 266.732C97.7844 266.902 98.1511 267.15 98.4535 267.461C98.7558 267.772 98.9872 268.139 99.1332 268.54C99.2792 268.94 99.3366 269.365 99.3018 269.787L96.2481 314.151C96.193 314.931 95.829 315.661 95.2298 316.194C94.6306 316.727 93.8409 317.024 93.0204 317.025Z" fill="#F5F5F5"/>
<path d="M99.18 268.827C99.0058 268.166 98.6049 267.579 98.0408 267.159C97.4767 266.739 96.7816 266.51 96.0654 266.508H67.7121C66.9959 266.51 66.3008 266.739 65.7367 267.159C65.1726 267.579 64.7717 268.166 64.5975 268.827L64.5105 270.102L64.5975 271.377C64.7731 272.037 65.1743 272.623 65.7381 273.043C66.3019 273.463 66.9963 273.692 67.7121 273.695H96.0828C96.7986 273.692 97.493 273.463 98.0568 273.043C98.6206 272.623 99.0218 272.037 99.1974 271.377L99.2844 270.102L99.18 268.827Z" fill="#EBEBEB"/>
<path d="M66.4854 225.887C62.8575 221.622 55.8453 218.782 48.1458 217.416C48.7461 219.511 48.2937 221.449 46.9887 221.921C45.5358 222.45 43.587 220.968 42.6387 218.609C42.3856 217.981 42.2246 217.324 42.1602 216.655C34.3998 216.058 26.6307 216.903 21.4542 219.271C21.4542 219.271 26.5263 223.626 32.2683 235.069H32.8077C36.5226 235.069 39.5241 236.816 39.498 238.886C39.498 240.402 37.8537 241.685 35.5308 242.256C35.8353 242.993 36.1398 243.738 36.4008 244.508C41.8818 258.584 56.4804 248.417 56.3499 238.762C56.3847 238.754 74.6199 235.425 66.4854 225.887Z" fill="#F0F0F0"/>
<path d="M27.6747 221.192L27.2658 221.043L27.6747 221.192Z" fill="#E0E0E0"/>
<path d="M50.3208 233.181C50.199 231.426 50.3208 226.756 54.8535 224.073C54.8535 224.073 49.8597 224.785 49.1376 232.295C42.6288 227.559 35.3887 223.811 27.6747 221.184C29.9889 222.012 41.7687 226.582 53.8878 237.454C51.9001 237.573 49.9865 238.216 48.3609 239.312C46.7354 240.407 45.462 241.911 44.6832 243.655C44.6832 243.655 48.5634 238.34 55.1928 238.638C64.8037 247.623 72.1712 258.549 76.7514 270.607C76.8077 270.754 76.894 270.89 77.0055 271.006C77.1169 271.121 77.2513 271.215 77.4008 271.281C77.5503 271.347 77.7121 271.385 77.8769 271.391C78.0416 271.398 78.2061 271.373 78.3609 271.319C78.5152 271.264 78.6565 271.18 78.7763 271.073C78.8961 270.965 78.9921 270.836 79.0586 270.692C79.125 270.549 79.1607 270.394 79.1634 270.237C79.1661 270.08 79.1358 269.924 79.0743 269.779C77.1342 265.159 68.73 247.001 50.3208 233.181Z" fill="#E0E0E0"/>
<path d="M87.5655 225.978C90.0189 221.01 96.1089 216.654 103.226 213.558C103.173 215.735 104.096 217.507 105.479 217.698C107.027 217.88 108.541 215.992 108.863 213.483C108.96 212.818 108.96 212.144 108.863 211.479C116.249 209.12 124.001 208.167 129.63 209.277C129.63 209.277 125.802 214.659 123.122 227.087L122.6 227.195C118.999 228.081 116.51 230.432 117.067 232.436C117.467 233.902 119.373 234.779 121.765 234.796C121.661 235.583 121.556 236.369 121.461 237.189C119.721 252.134 102.965 245.585 100.65 236.187C100.633 236.162 82.0845 237.106 87.5655 225.978Z" fill="#E0E0E0"/>
<path d="M124.053 212.531L124.419 212.299L124.053 212.531Z" fill="#F5F5F5"/>
<path d="M86.4519 271.476C86.4312 271.632 86.4429 271.79 86.4864 271.941C86.5298 272.092 86.6042 272.234 86.7052 272.357C86.8062 272.481 86.9319 272.585 87.075 272.662C87.2182 272.74 87.376 272.79 87.5394 272.809C87.7034 272.827 87.8694 272.813 88.0278 272.769C88.1862 272.725 88.3339 272.651 88.4624 272.553C88.591 272.455 88.6978 272.333 88.7768 272.195C88.8558 272.057 88.9054 271.906 88.9227 271.75C90.3245 258.991 94.7221 246.696 101.79 235.773C108.141 233.968 113.257 238.257 113.257 238.257C112.061 236.731 110.44 235.554 108.579 234.859C106.717 234.164 104.688 233.979 102.721 234.324C111.734 220.993 122.018 213.856 124.053 212.523C117.23 216.85 111.152 222.157 106.036 228.255C103.426 221.134 98.4057 221.631 98.4057 221.631C103.46 223.187 104.783 227.692 105.105 229.422C90.7671 246.976 87.1653 266.541 86.4519 271.476Z" fill="#F5F5F5"/>
<path d="M92.7768 224.487C91.6284 219.114 86.7738 213.516 80.5968 208.921C80.1183 211.049 78.7785 212.564 77.3952 212.415C75.8466 212.241 74.8374 210.072 75.1419 207.563C75.2207 206.895 75.3964 206.24 75.6639 205.617C69.0693 201.676 61.7439 198.993 56.0193 198.844C56.0193 198.844 58.4118 204.938 57.9594 217.615C58.1231 217.681 58.2828 217.756 58.4379 217.838C61.7178 219.494 63.5535 222.335 62.5269 224.164C61.7787 225.498 59.7168 225.928 57.3765 225.415C57.2895 226.193 57.1938 226.988 57.0894 227.808C55.1058 242.712 73.0017 240.095 77.5692 231.476C77.5779 231.476 95.3694 236.518 92.7768 224.487Z" fill="#F5F5F5"/>
<path d="M60.6216 203.282L60.3258 202.968L60.6216 203.282Z" fill="#E0E0E0"/>
<path d="M74.8983 223.866C75.6378 222.26 78.0303 218.17 83.3373 217.781C83.3373 217.781 78.5523 216.216 74.2719 222.566C70.7958 215.506 66.191 209.001 60.6216 203.282C62.2746 205.029 70.5135 214.262 75.9945 229.232C74.1732 228.46 72.1618 228.188 70.1867 228.445C68.2116 228.703 66.3513 229.48 64.815 230.689C64.815 230.689 70.8354 227.7 76.56 230.846C80.7364 243.041 81.9793 255.973 80.1966 268.686C80.1734 268.841 80.1831 268.999 80.2251 269.151C80.267 269.302 80.3404 269.445 80.4409 269.569C80.5415 269.693 80.6671 269.797 80.8104 269.874C80.9537 269.951 81.1118 270.001 81.2754 270.019C81.4383 270.036 81.6031 270.023 81.7605 269.979C81.9178 269.936 82.0646 269.863 82.1923 269.765C82.32 269.667 82.4262 269.547 82.5047 269.41C82.5833 269.273 82.6327 269.123 82.65 268.967C83.1894 264.008 84.5031 244.185 74.8983 223.866Z" fill="#E0E0E0"/>
<path d="M67.7382 188.577H64.6932L86.6868 95.427H89.7318L67.7382 188.577Z" fill="#F5F5F5"/>
<path d="M62.3007 188.577H53.3832L75.3768 95.427H84.2943L62.3007 188.577Z" fill="#F5F5F5"/>
<path d="M88.4007 188.577H76.0032L97.9968 95.427H110.394L88.4007 188.577Z" fill="#FAFAFA"/>
<path d="M115.64 191.881H46.8582V92.264H115.64V191.881ZM51.2082 187.741H111.29V96.404H51.2082V187.741Z" fill="#EBEBEB"/>
<path d="M121.295 187.741H41.2032V191.881H121.295V187.741Z" fill="#E0E0E0"/>
<path d="M82.5543 94.334H79.9443V189.811H82.5543V94.334Z" fill="#EBEBEB"/>
<path d="M113.465 140.826H49.0332V143.31H113.465V140.826Z" fill="#E0E0E0"/>
<path d="M213.307 350.832C306.468 350.832 381.991 346.635 381.991 341.459C381.991 336.282 306.468 332.086 213.307 332.086C120.145 332.086 44.6223 336.282 44.6223 341.459C44.6223 346.635 120.145 350.832 213.307 350.832Z" fill="#F5F5F5"/>
<path d="M243.443 337.095L259.73 321.595L276.016 337.095C276.224 337.293 276.471 337.45 276.743 337.557C277.014 337.663 277.306 337.717 277.6 337.716C278.042 337.716 278.474 337.59 278.841 337.356C279.208 337.121 279.494 336.789 279.663 336.4C279.831 336.011 279.875 335.583 279.788 335.17C279.701 334.757 279.487 334.379 279.174 334.081L259.73 315.567L240.277 334.081C239.963 334.379 239.749 334.759 239.663 335.172C239.576 335.585 239.62 336.014 239.79 336.403C239.959 336.793 240.247 337.125 240.615 337.359C240.984 337.593 241.417 337.717 241.86 337.716C242.453 337.717 243.023 337.493 243.443 337.095Z" fill="#407BFF"/>
<path opacity="0.2" d="M260.278 316.097H259.173L254.188 320.842V326.646H254.423L259.73 321.595L265.037 326.646H265.272V320.842L260.278 316.097Z" fill="black"/>
<path d="M256.398 282.936H263.062V335.232C263.062 335.891 262.787 336.523 262.297 336.989C261.808 337.455 261.144 337.716 260.452 337.716H259.008C258.315 337.716 257.652 337.455 257.162 336.989C256.673 336.523 256.398 335.891 256.398 335.232V282.936Z" fill="#407BFF"/>
<path opacity="0.2" d="M263.062 282.936H256.398V286.778H263.062V282.936Z" fill="black"/>
<path d="M378.337 284.36H141.114C138.772 284.356 136.527 283.468 134.872 281.891C133.217 280.314 132.286 278.177 132.284 275.948V92.7939H387.15V275.948C387.148 278.174 386.219 280.308 384.568 281.885C382.916 283.461 380.676 284.351 378.337 284.36ZM135.259 95.634V275.948C135.261 277.425 135.879 278.841 136.976 279.885C138.074 280.93 139.562 281.518 141.114 281.52H378.337C379.889 281.518 381.377 280.93 382.475 279.885C383.572 278.841 384.19 277.425 384.192 275.948V95.634H135.259Z" fill="#407BFF"/>
<g opacity="0.8">
<path d="M378.337 284.36H141.114C138.772 284.356 136.527 283.468 134.872 281.891C133.217 280.314 132.286 278.177 132.284 275.948V92.7939H387.15V275.948C387.148 278.174 386.219 280.308 384.568 281.885C382.916 283.461 380.676 284.351 378.337 284.36ZM135.259 95.634V275.948C135.261 277.425 135.879 278.841 136.976 279.885C138.074 280.93 139.562 281.518 141.114 281.52H378.337C379.889 281.518 381.377 280.93 382.475 279.885C383.572 278.841 384.19 277.425 384.192 275.948V95.634H135.259Z" fill="white"/>
</g>
<g opacity="0.8">
<path d="M135.259 95.634V275.948C135.261 277.425 135.879 278.841 136.976 279.885C138.074 280.93 139.562 281.518 141.114 281.52H378.337C379.889 281.518 381.377 280.93 382.475 279.885C383.572 278.841 384.19 277.425 384.192 275.948V95.634H135.259Z" fill="white"/>
</g>
<path d="M392.936 91.022H126.524V97.4142H392.936V91.022Z" fill="#407BFF"/>
<path opacity="0.5" d="M392.936 91.022H126.524V97.4142H392.936V91.022Z" fill="white"/>
<path opacity="0.5" d="M392.936 91.022H126.524V94.2181H392.936V91.022Z" fill="white"/>
<path d="M302.064 243.921V242.712H292.32V233.339H291.059V242.712H281.654V233.339H280.384V242.712H271.17V233.339H269.9V242.712H260.765V233.339H259.504V242.712H250.125V233.339H248.82V242.712H239.172V243.921H248.82V252.689H239.172V253.898H248.82V262.666H239.172V263.875H248.82V273.24H250.09V263.875H259.469V273.24H260.73V263.875H269.865V273.24H271.136V263.875H280.349V273.24H281.619V263.875H290.998V273.24H292.32V263.875H302.064V262.666H292.32V253.898H302.064V252.689H292.32V243.921H302.064ZM280.384 243.921V252.689H271.17V243.921H280.384ZM269.944 243.921V252.689H260.809V243.921H269.944ZM250.169 243.921H259.547V252.689H250.125L250.169 243.921ZM250.169 262.666V253.898H259.547V262.666H250.169ZM260.809 262.666V253.898H269.944V262.666H260.809ZM271.249 262.666V253.898H280.462V262.666H271.249ZM291.111 262.666H281.654V253.898H291.032L291.111 262.666ZM291.111 252.689H281.654V243.921H291.032L291.111 252.689Z" fill="#407BFF"/>
<path opacity="0.7" d="M302.064 243.921V242.712H292.32V233.339H291.059V242.712H281.654V233.339H280.384V242.712H271.17V233.339H269.9V242.712H260.765V233.339H259.504V242.712H250.125V233.339H248.82V242.712H239.172V243.921H248.82V252.689H239.172V253.898H248.82V262.666H239.172V263.875H248.82V273.24H250.09V263.875H259.469V273.24H260.73V263.875H269.865V273.24H271.136V263.875H280.349V273.24H281.619V263.875H290.998V273.24H292.32V263.875H302.064V262.666H292.32V253.898H302.064V252.689H292.32V243.921H302.064ZM280.384 243.921V252.689H271.17V243.921H280.384ZM269.944 243.921V252.689H260.809V243.921H269.944ZM250.169 243.921H259.547V252.689H250.125L250.169 243.921ZM250.169 262.666V253.898H259.547V262.666H250.169ZM260.809 262.666V253.898H269.944V262.666H260.809ZM271.249 262.666V253.898H280.462V262.666H271.249ZM291.111 262.666H281.654V253.898H291.032L291.111 262.666ZM291.111 252.689H281.654V243.921H291.032L291.111 252.689Z" fill="white"/>
<path d="M298.871 274.449H242.321C241.143 274.447 240.014 274.002 239.18 273.211C238.346 272.42 237.874 271.347 237.867 270.226L237.727 236.394C237.724 235.835 237.837 235.281 238.059 234.764C238.281 234.247 238.609 233.776 239.023 233.38C239.437 232.984 239.929 232.669 240.471 232.455C241.013 232.24 241.595 232.13 242.182 232.13H298.845C300.029 232.13 301.164 232.577 302.001 233.374C302.838 234.17 303.308 235.251 303.308 236.377V270.209C303.306 271.33 302.838 272.405 302.007 273.199C301.176 273.993 300.049 274.442 298.871 274.449ZM242.208 234.548C241.697 234.55 241.208 234.744 240.848 235.089C240.488 235.433 240.285 235.9 240.285 236.386L240.424 270.218C240.429 270.701 240.633 271.163 240.993 271.504C241.353 271.845 241.839 272.037 242.347 272.039H298.897C299.408 272.039 299.898 271.847 300.26 271.504C300.622 271.161 300.826 270.696 300.829 270.209V236.377C300.826 235.891 300.622 235.426 300.26 235.083C299.898 234.74 299.408 234.548 298.897 234.548H242.208Z" fill="#407BFF"/>
<g opacity="0.8">
<path d="M298.871 274.449H242.321C241.143 274.447 240.014 274.002 239.18 273.211C238.346 272.42 237.874 271.347 237.867 270.226L237.727 236.394C237.724 235.835 237.837 235.281 238.059 234.764C238.281 234.247 238.609 233.776 239.023 233.38C239.437 232.984 239.929 232.669 240.471 232.455C241.013 232.24 241.595 232.13 242.182 232.13H298.845C300.029 232.13 301.164 232.577 302.001 233.374C302.838 234.17 303.308 235.251 303.308 236.377V270.209C303.306 271.33 302.838 272.405 302.007 273.199C301.176 273.993 300.049 274.442 298.871 274.449ZM242.208 234.548C241.697 234.55 241.208 234.744 240.848 235.089C240.488 235.433 240.285 235.9 240.285 236.386L240.424 270.218C240.429 270.701 240.633 271.163 240.993 271.504C241.353 271.845 241.839 272.037 242.347 272.039H298.897C299.408 272.039 299.898 271.847 300.26 271.504C300.622 271.161 300.826 270.696 300.829 270.209V236.377C300.826 235.891 300.622 235.426 300.26 235.083C299.898 234.74 299.408 234.548 298.897 234.548H242.208Z" fill="white"/>
</g>
<path d="M291.668 250.544V245.56H240.329L240.346 250.544H291.668Z" fill="#407BFF"/>
<path opacity="0.6" d="M291.668 250.544V245.56H240.329L240.346 250.544H291.668Z" fill="white"/>
<path d="M281.01 235.831H240.381C240.322 236.011 240.29 236.197 240.285 236.386V240.824H281.01V235.831Z" fill="#407BFF"/>
<path opacity="0.3" d="M281.01 235.831H240.381C240.322 236.011 240.29 236.197 240.285 236.386V240.824H281.01V235.831Z" fill="white"/>
<path d="M297.001 265.788H240.407V270.243C240.412 270.423 240.444 270.601 240.503 270.773H296.983L297.001 265.788Z" fill="#407BFF"/>
<path opacity="0.2" d="M297.001 265.788H240.407V270.243C240.412 270.423 240.444 270.601 240.503 270.773H296.983L297.001 265.788Z" fill="black"/>
<path d="M270.535 260.77V255.786H240.364L240.39 260.77H270.535Z" fill="#407BFF"/>
<path d="M374.639 123.852V122.652H354.308V103.301H353.046V122.652H333.341V103.301H332.079V122.652H312.382V103.301H311.112V122.652H291.45V103.301H290.145V122.652H270.448V103.301H269.178V122.652H249.481V103.301H248.211V122.652H228.514V103.301H227.244V122.652H207.547V103.301H206.286V122.652H186.589V103.301H185.31V122.652H165.622V103.301H164.352V122.652H144.02V123.852H164.352V142.598H144.02V143.807H164.352V162.553H144.02V163.762H164.352V182.508H144.02V183.717H164.352V202.463H144.02V203.688H164.352V223.038H165.622V203.688H185.31V223.038H186.58V203.688H206.277V223.038H207.539V203.688H227.244V223.038H228.514V203.688H248.211V223.038H249.481V203.688H269.178V223.038H270.448V203.688H290.145V223.038H291.45V203.688H311.112V223.038H312.382V203.688H332.079V223.038H333.341V203.688H353.046V223.038H354.308V203.688H374.639V202.479H354.308V183.717H374.639V182.508H354.308V163.762H374.639V162.553H354.308V143.807H374.639V142.598H354.308V123.852H374.639ZM332.079 123.852V142.598H312.382V123.852H332.079ZM290.145 162.553H270.448V143.807H290.145V162.553ZM291.45 143.807H311.112V162.553H291.45V143.807ZM269.178 162.553H249.481V143.807H269.178V162.553ZM248.211 162.553H228.514V143.807H248.211V162.553ZM227.244 162.553H207.547V143.807H227.244V162.553ZM206.286 162.553H186.589V143.807H206.286V162.553ZM206.286 163.762V182.508H186.589V163.762H206.286ZM207.547 163.762H227.244V182.508H207.547V163.762ZM228.514 163.762H248.211V182.508H228.514V163.762ZM249.481 163.762H269.178V182.508H249.481V163.762ZM270.448 163.762H290.145V182.508H270.448V163.762ZM291.415 163.762H311.112V182.508H291.45L291.415 163.762ZM312.382 163.762H332.079V182.508H312.382V163.762ZM312.382 162.553V143.807H332.079V162.553H312.382ZM311.112 123.852V142.598H291.45V123.852H311.112ZM290.145 123.852V142.598H270.448V123.852H290.145ZM269.178 123.852V142.598H249.481V123.852H269.178ZM248.211 123.852V142.598H228.514V123.852H248.211ZM227.244 123.852V142.598H207.547V123.852H227.244ZM206.286 123.852V142.598H186.589V123.852H206.286ZM165.622 123.852H185.31V142.598H165.622V123.852ZM165.622 143.807H185.31V162.553H165.622V143.807ZM165.622 163.762H185.31V182.508H165.622V163.762ZM165.622 202.463V183.717H185.31V202.463H165.622ZM186.589 202.463V183.717H206.286V202.463H186.589ZM207.547 202.463V183.717H227.244V202.463H207.547ZM228.514 202.463V183.717H248.211V202.463H228.514ZM249.481 202.463V183.717H269.178V202.463H249.481ZM270.448 202.463V183.717H290.145V202.463H270.448ZM291.415 202.463V183.717H311.112V202.463H291.415ZM312.382 202.463V183.717H332.079V202.463H312.382ZM353.046 202.463H333.341V183.717H353.046V202.463ZM353.046 182.508H333.341V163.762H353.046V182.508ZM353.046 162.553H333.341V143.807H353.046V162.553ZM353.046 142.598H333.341V123.852H353.046V142.598Z" fill="#407BFF"/>
<path opacity="0.7" d="M374.639 123.852V122.652H354.308V103.301H353.046V122.652H333.341V103.301H332.079V122.652H312.382V103.301H311.112V122.652H291.45V103.301H290.145V122.652H270.448V103.301H269.178V122.652H249.481V103.301H248.211V122.652H228.514V103.301H227.244V122.652H207.547V103.301H206.286V122.652H186.589V103.301H185.31V122.652H165.622V103.301H164.352V122.652H144.02V123.852H164.352V142.598H144.02V143.807H164.352V162.553H144.02V163.762H164.352V182.508H144.02V183.717H164.352V202.463H144.02V203.688H164.352V223.038H165.622V203.688H185.31V223.038H186.58V203.688H206.277V223.038H207.539V203.688H227.244V223.038H228.514V203.688H248.211V223.038H249.481V203.688H269.178V223.038H270.448V203.688H290.145V223.038H291.45V203.688H311.112V223.038H312.382V203.688H332.079V223.038H333.341V203.688H353.046V223.038H354.308V203.688H374.639V202.479H354.308V183.717H374.639V182.508H354.308V163.762H374.639V162.553H354.308V143.807H374.639V142.598H354.308V123.852H374.639ZM332.079 123.852V142.598H312.382V123.852H332.079ZM290.145 162.553H270.448V143.807H290.145V162.553ZM291.45 143.807H311.112V162.553H291.45V143.807ZM269.178 162.553H249.481V143.807H269.178V162.553ZM248.211 162.553H228.514V143.807H248.211V162.553ZM227.244 162.553H207.547V143.807H227.244V162.553ZM206.286 162.553H186.589V143.807H206.286V162.553ZM206.286 163.762V182.508H186.589V163.762H206.286ZM207.547 163.762H227.244V182.508H207.547V163.762ZM228.514 163.762H248.211V182.508H228.514V163.762ZM249.481 163.762H269.178V182.508H249.481V163.762ZM270.448 163.762H290.145V182.508H270.448V163.762ZM291.415 163.762H311.112V182.508H291.45L291.415 163.762ZM312.382 163.762H332.079V182.508H312.382V163.762ZM312.382 162.553V143.807H332.079V162.553H312.382ZM311.112 123.852V142.598H291.45V123.852H311.112ZM290.145 123.852V142.598H270.448V123.852H290.145ZM269.178 123.852V142.598H249.481V123.852H269.178ZM248.211 123.852V142.598H228.514V123.852H248.211ZM227.244 123.852V142.598H207.547V123.852H227.244ZM206.286 123.852V142.598H186.589V123.852H206.286ZM165.622 123.852H185.31V142.598H165.622V123.852ZM165.622 143.807H185.31V162.553H165.622V143.807ZM165.622 163.762H185.31V182.508H165.622V163.762ZM165.622 202.463V183.717H185.31V202.463H165.622ZM186.589 202.463V183.717H206.286V202.463H186.589ZM207.547 202.463V183.717H227.244V202.463H207.547ZM228.514 202.463V183.717H248.211V202.463H228.514ZM249.481 202.463V183.717H269.178V202.463H249.481ZM270.448 202.463V183.717H290.145V202.463H270.448ZM291.415 202.463V183.717H311.112V202.463H291.415ZM312.382 202.463V183.717H332.079V202.463H312.382ZM353.046 202.463H333.341V183.717H353.046V202.463ZM353.046 182.508H333.341V163.762H353.046V182.508ZM353.046 162.553H333.341V143.807H353.046V162.553ZM353.046 142.598H333.341V123.852H353.046V142.598Z" fill="white"/>
<path d="M371.333 224.222H147.326C146.114 224.222 144.951 223.765 144.093 222.95C143.235 222.135 142.752 221.029 142.75 219.875V106.439C142.752 105.285 143.235 104.178 144.093 103.362C144.95 102.546 146.113 102.086 147.326 102.084H371.333C372.546 102.086 373.709 102.546 374.567 103.362C375.424 104.178 375.907 105.285 375.91 106.439V219.875C375.907 221.029 375.424 222.135 374.566 222.95C373.708 223.765 372.546 224.222 371.333 224.222ZM147.326 104.502C146.785 104.504 146.267 104.71 145.886 105.075C145.504 105.439 145.29 105.933 145.29 106.448V219.884C145.289 220.137 145.341 220.389 145.442 220.623C145.544 220.858 145.693 221.071 145.882 221.25C146.265 221.614 146.784 221.82 147.326 221.821H371.333C371.873 221.821 372.391 221.617 372.773 221.254C373.155 220.89 373.369 220.398 373.369 219.884V106.448C373.369 105.933 373.155 105.439 372.774 105.075C372.392 104.71 371.874 104.504 371.333 104.502H147.326Z" fill="#407BFF"/>
<g opacity="0.8">
<path d="M371.333 224.222H147.326C146.114 224.222 144.951 223.765 144.093 222.95C143.235 222.135 142.752 221.029 142.75 219.875V106.439C142.752 105.285 143.235 104.178 144.093 103.362C144.95 102.546 146.113 102.086 147.326 102.084H371.333C372.546 102.086 373.709 102.546 374.567 103.362C375.424 104.178 375.907 105.285 375.91 106.439V219.875C375.907 221.029 375.424 222.135 374.566 222.95C373.708 223.765 372.546 224.222 371.333 224.222ZM147.326 104.502C146.785 104.504 146.267 104.71 145.886 105.075C145.504 105.439 145.29 105.933 145.29 106.448V219.884C145.289 220.137 145.341 220.389 145.442 220.623C145.544 220.858 145.693 221.071 145.882 221.25C146.265 221.614 146.784 221.82 147.326 221.821H371.333C371.873 221.821 372.391 221.617 372.773 221.254C373.155 220.89 373.369 220.398 373.369 219.884V106.448C373.369 105.933 373.155 105.439 372.774 105.075C372.392 104.71 371.874 104.504 371.333 104.502H147.326Z" fill="white"/>
</g>
<path d="M202.727 169.144H190.147V221.813H202.727V169.144Z" fill="#407BFF"/>
<path d="M223.686 151.185H211.106V221.813H223.686V151.185Z" fill="#407BFF"/>
<path opacity="0.6" d="M223.686 151.185H211.106V221.813H223.686V151.185Z" fill="white"/>
<path d="M244.653 169.144H232.073V221.813H244.653V169.144Z" fill="#407BFF"/>
<path opacity="0.3" d="M244.653 169.144H232.073V221.813H244.653V169.144Z" fill="white"/>
<path d="M160.793 187.103H148.213V221.813H160.793V187.103Z" fill="#407BFF"/>
<path opacity="0.6" d="M160.793 187.103H148.213V221.813H160.793V187.103Z" fill="white"/>
<path d="M181.76 178.434H169.18V221.813H181.76V178.434Z" fill="#407BFF"/>
<path opacity="0.3" d="M181.76 178.434H169.18V221.813H181.76V178.434Z" fill="white"/>
<path d="M265.62 187.103H253.04V221.813H265.62V187.103Z" fill="#407BFF"/>
<path d="M370.446 133.225H357.866V221.813H370.446V133.225Z" fill="#407BFF"/>
<path opacity="0.3" d="M370.446 133.225H357.866V221.813H370.446V133.225Z" fill="white"/>
<path d="M286.587 169.144H274.007V221.813H286.587V169.144Z" fill="#407BFF"/>
<path opacity="0.6" d="M286.587 169.144H274.007V221.813H286.587V169.144Z" fill="white"/>
<path d="M349.488 151.185H336.908V221.813H349.488V151.185Z" fill="#407BFF"/>
<path opacity="0.6" d="M349.488 151.185H336.908V221.813H349.488V151.185Z" fill="white"/>
<path d="M328.521 160.475H315.94V221.813H328.521V160.475Z" fill="#407BFF"/>
<path d="M307.554 178.434H294.974V221.813H307.554V178.434Z" fill="#407BFF"/>
<path opacity="0.3" d="M307.554 178.434H294.974V221.813H307.554V178.434Z" fill="white"/>
<path d="M345.164 233.38V238.348C348.458 238.603 351.582 239.844 354.09 241.892L357.805 238.356C354.298 235.394 349.845 233.641 345.164 233.38Z" fill="#407BFF"/>
<path opacity="0.3" d="M345.164 233.38V238.348C348.458 238.603 351.582 239.844 354.09 241.892L357.805 238.356C354.298 235.394 349.845 233.641 345.164 233.38Z" fill="white"/>
<path d="M342.632 268.206C338.912 267.917 335.421 266.38 332.783 263.868C330.144 261.357 328.528 258.034 328.225 254.494H323.005C323.316 259.36 325.488 263.95 329.11 267.397C332.732 270.844 337.554 272.911 342.667 273.207L342.632 268.206Z" fill="#407BFF"/>
<path opacity="0.7" d="M342.632 268.206C338.912 267.917 335.421 266.38 332.783 263.868C330.144 261.357 328.528 258.034 328.225 254.494H323.005C323.316 259.36 325.488 263.95 329.11 267.397C332.732 270.844 337.554 272.911 342.667 273.207L342.632 268.206Z" fill="white"/>
<path d="M328.225 252.085C328.527 248.545 330.142 245.223 332.781 242.712C335.421 240.201 338.913 238.666 342.632 238.381V233.413C337.519 233.706 332.696 235.77 329.074 239.216C325.451 242.663 323.28 247.252 322.97 252.118L328.225 252.085Z" fill="#407BFF"/>
<path opacity="0.2" d="M328.225 252.085C328.527 248.545 330.142 245.223 332.781 242.712C335.421 240.201 338.913 238.666 342.632 238.381V233.413C337.519 233.706 332.696 235.77 329.074 239.216C325.451 242.663 323.28 247.252 322.97 252.118L328.225 252.085Z" fill="black"/>
<path d="M359.588 240.062L355.874 243.598C357.749 245.696 358.979 248.245 359.429 250.966C359.879 253.687 359.531 256.473 358.424 259.018C357.316 261.562 355.492 263.767 353.152 265.388C350.813 267.009 348.048 267.984 345.164 268.206V273.174C349.082 272.943 352.853 271.67 356.048 269.5C359.243 267.329 361.733 264.349 363.236 260.898C364.739 257.447 365.194 253.664 364.549 249.979C363.905 246.294 362.186 242.855 359.588 240.054V240.062Z" fill="#407BFF"/>
<path d="M218.126 243.921V242.712H208.356V233.339H207.06V242.712H197.708V233.339H196.446V242.712H187.233V233.339H185.963V242.712H176.828V233.339H175.557V242.712H166.17V233.339H164.9V242.712H155.225V243.921H164.917V252.689H155.225V253.898H164.917V262.666H155.225V263.875H164.917V273.24H166.17V263.875H175.54V273.24H176.81V263.875H185.945V273.24H187.215V263.875H196.446V273.24H197.708V263.875H207.06V273.24H208.33V263.875H218.1V262.666H208.356V253.898H218.126V252.689H208.356V243.921H218.126ZM196.446 243.921V252.689H187.233V243.921H196.446ZM185.963 243.921V252.689H176.828V243.921H185.963ZM166.187 243.921H175.557V252.689H166.17L166.187 243.921ZM166.187 262.666V253.898H175.557V262.666H166.187ZM176.828 262.666V253.898H185.963V262.666H176.828ZM187.268 262.666V253.898H196.446V262.666H187.268ZM207.121 262.666H197.708V253.898H207.06L207.121 262.666ZM207.121 252.689H197.708V243.921H207.06L207.121 252.689Z" fill="#407BFF"/>
<path opacity="0.7" d="M218.126 243.921V242.712H208.356V233.339H207.06V242.712H197.708V233.339H196.446V242.712H187.233V233.339H185.963V242.712H176.828V233.339H175.557V242.712H166.17V233.339H164.9V242.712H155.225V243.921H164.917V252.689H155.225V253.898H164.917V262.666H155.225V263.875H164.917V273.24H166.17V263.875H175.54V273.24H176.81V263.875H185.945V273.24H187.215V263.875H196.446V273.24H197.708V263.875H207.06V273.24H208.33V263.875H218.1V262.666H208.356V253.898H218.126V252.689H208.356V243.921H218.126ZM196.446 243.921V252.689H187.233V243.921H196.446ZM185.963 243.921V252.689H176.828V243.921H185.963ZM166.187 243.921H175.557V252.689H166.17L166.187 243.921ZM166.187 262.666V253.898H175.557V262.666H166.187ZM176.828 262.666V253.898H185.963V262.666H176.828ZM187.268 262.666V253.898H196.446V262.666H187.268ZM207.121 262.666H197.708V253.898H207.06L207.121 262.666ZM207.121 252.689H197.708V243.921H207.06L207.121 252.689Z" fill="white"/>
<path d="M214.89 274.449H158.262C157.078 274.449 155.943 274.001 155.106 273.205C154.269 272.408 153.799 271.328 153.799 270.201V236.377C153.799 235.251 154.269 234.17 155.106 233.374C155.943 232.577 157.078 232.13 158.262 232.13H214.89C216.074 232.13 217.209 232.577 218.046 233.374C218.883 234.17 219.353 235.251 219.353 236.377V270.201C219.353 271.328 218.883 272.408 218.046 273.205C217.209 274.001 216.074 274.449 214.89 274.449ZM158.227 234.548C157.716 234.548 157.226 234.74 156.864 235.083C156.502 235.426 156.298 235.891 156.295 236.377V270.201C156.298 270.688 156.502 271.154 156.864 271.499C157.225 271.843 157.715 272.037 158.227 272.039H214.89C215.402 272.037 215.891 271.843 216.253 271.499C216.615 271.154 216.819 270.688 216.821 270.201V236.377C216.819 235.891 216.615 235.426 216.253 235.083C215.891 234.74 215.401 234.548 214.89 234.548H158.227Z" fill="#407BFF"/>
<g opacity="0.8">
<path d="M214.89 274.449H158.262C157.078 274.449 155.943 274.001 155.106 273.205C154.269 272.408 153.799 271.328 153.799 270.201V236.377C153.799 235.251 154.269 234.17 155.106 233.374C155.943 232.577 157.078 232.13 158.262 232.13H214.89C216.074 232.13 217.209 232.577 218.046 233.374C218.883 234.17 219.353 235.251 219.353 236.377V270.201C219.353 271.328 218.883 272.408 218.046 273.205C217.209 274.001 216.074 274.449 214.89 274.449ZM158.227 234.548C157.716 234.548 157.226 234.74 156.864 235.083C156.502 235.426 156.298 235.891 156.295 236.377V270.201C156.298 270.688 156.502 271.154 156.864 271.499C157.225 271.843 157.715 272.037 158.227 272.039H214.89C215.402 272.037 215.891 271.843 216.253 271.499C216.615 271.154 216.819 270.688 216.821 270.201V236.377C216.819 235.891 216.615 235.426 216.253 235.083C215.891 234.74 215.401 234.548 214.89 234.548H158.227Z" fill="white"/>
</g>
<path d="M208.461 241.304H202.788L197.116 246.703L186.45 251.787H175.27L164.265 262.261H156.33V264.066H165.056L176.062 253.592H186.902L198.247 248.193L203.58 243.117H208.913L216.856 239.342V237.313L208.461 241.304Z" fill="#407BFF"/>
<g opacity="0.6">
<path d="M208.461 241.304H202.788L197.116 246.703L186.45 251.787H175.27L164.265 262.261H156.33V264.066H165.056L176.062 253.592H186.902L198.247 248.193L203.58 243.117H208.913L216.856 239.342V237.313L208.461 241.304Z" fill="white"/>
</g>
<path d="M208.121 251.944L186.45 262.261H175.444L164.439 267.494H156.33V269.307H164.882L175.897 264.066H186.902L209.252 253.434L216.856 246.198V243.639L208.121 251.944Z" fill="#407BFF"/>
<path d="M208.461 246.545L197.455 251.787H186.45L175.444 257.019H156.33V258.833H175.897L186.902 253.592H197.908L208.913 248.359H216.856V246.545H208.461Z" fill="#407BFF"/>
<g opacity="0.3">
<path d="M208.461 246.545L197.455 251.787H186.45L175.444 257.019H156.33V258.833H175.897L186.902 253.592H197.908L208.913 248.359H216.856V246.545H208.461Z" fill="white"/>
</g>
<path d="M234.769 282.389H131.779C130.419 282.389 129.317 283.439 129.317 284.733V287.15C129.317 288.445 130.419 289.494 131.779 289.494H234.769C236.129 289.494 237.232 288.445 237.232 287.15V284.733C237.232 283.439 236.129 282.389 234.769 282.389Z" fill="#407BFF"/>
<path opacity="0.6" d="M234.769 282.389H131.779C130.419 282.389 129.317 283.439 129.317 284.733V287.15C129.317 288.445 130.419 289.494 131.779 289.494H234.769C236.129 289.494 237.232 288.445 237.232 287.15V284.733C237.232 283.439 236.129 282.389 234.769 282.389Z" fill="white"/>
<path d="M221.023 289.494H145.534V301.135H221.023V289.494Z" fill="#407BFF"/>
<path opacity="0.3" d="M221.023 289.494H145.534V301.135H221.023V289.494Z" fill="white"/>
<path d="M221.023 336.706H145.534V342.527H221.023V336.706Z" fill="#407BFF"/>
<path opacity="0.3" d="M221.023 336.706H145.534V342.527H221.023V336.706Z" fill="white"/>
<path d="M179.403 289.494H187.154V357.696C187.154 358.232 186.931 358.746 186.533 359.125C186.134 359.503 185.595 359.716 185.032 359.716H182.422C182.03 359.716 181.642 359.643 181.28 359.5C180.918 359.357 180.589 359.148 180.311 358.884C180.034 358.621 179.815 358.308 179.665 357.963C179.515 357.619 179.437 357.249 179.437 356.876V289.494H179.403Z" fill="#263238"/>
<path d="M141.662 289.494H149.414V357.696C149.414 358.232 149.19 358.746 148.792 359.125C148.394 359.503 147.854 359.716 147.291 359.716H144.681C144.289 359.716 143.901 359.643 143.539 359.5C143.177 359.357 142.848 359.148 142.571 358.884C142.294 358.621 142.074 358.308 141.924 357.963C141.774 357.619 141.697 357.249 141.697 356.876V289.494H141.662Z" fill="#263238"/>
<path d="M217.152 289.494H224.904V357.696C224.904 358.232 224.68 358.746 224.282 359.125C223.884 359.503 223.344 359.716 222.781 359.716H220.171C219.775 359.721 219.383 359.65 219.016 359.509C218.65 359.368 218.316 359.158 218.035 358.893C217.754 358.628 217.532 358.313 217.38 357.965C217.228 357.617 217.151 357.244 217.152 356.868V289.494Z" fill="#263238"/>
<path d="M153.685 279.21H157.774V280.998C157.774 281.394 157.61 281.773 157.316 282.052C157.022 282.332 156.624 282.489 156.208 282.489H155.251C154.836 282.489 154.438 282.332 154.144 282.052C153.85 281.773 153.685 281.394 153.685 280.998V279.21Z" fill="#263238"/>
<path d="M181.952 279.21H186.041V280.998C186.041 281.394 185.876 281.773 185.582 282.052C185.288 282.332 184.89 282.489 184.475 282.489H183.518C183.312 282.489 183.109 282.45 182.919 282.375C182.729 282.3 182.556 282.191 182.41 282.052C182.265 281.914 182.15 281.75 182.071 281.569C181.992 281.388 181.952 281.194 181.952 280.998V279.21Z" fill="#263238"/>
<path d="M201.544 275.103H205.633V280.998C205.633 281.394 205.468 281.773 205.175 282.052C204.881 282.332 204.483 282.489 204.067 282.489H203.11C202.695 282.489 202.297 282.332 202.003 282.052C201.709 281.773 201.544 281.394 201.544 280.998V275.103Z" fill="#263238"/>
<path d="M167.84 275.103H171.929V280.998C171.929 281.394 171.764 281.773 171.471 282.052C171.177 282.332 170.779 282.489 170.363 282.489H169.406C168.991 282.489 168.593 282.332 168.299 282.052C168.005 281.773 167.84 281.394 167.84 280.998V275.103Z" fill="#263238"/>
<path d="M192.809 274.813C196.942 274.813 200.291 271.625 200.291 267.692C200.291 263.76 196.942 260.572 192.809 260.572C188.677 260.572 185.327 263.76 185.327 267.692C185.327 271.625 188.677 274.813 192.809 274.813Z" fill="#407BFF"/>
<path opacity="0.5" d="M192.809 274.813C196.942 274.813 200.291 271.625 200.291 267.692C200.291 263.76 196.942 260.572 192.809 260.572C188.677 260.572 185.327 263.76 185.327 267.692C185.327 271.625 188.677 274.813 192.809 274.813Z" fill="white"/>
<path d="M191.182 275.558C194.849 275.558 197.821 272.73 197.821 269.241C197.821 265.752 194.849 262.923 191.182 262.923C187.516 262.923 184.544 265.752 184.544 269.241C184.544 272.73 187.516 275.558 191.182 275.558Z" fill="#407BFF"/>
<path opacity="0.2" d="M191.182 275.558C194.849 275.558 197.821 272.73 197.821 269.241C197.821 265.752 194.849 262.923 191.182 262.923C187.516 262.923 184.544 265.752 184.544 269.241C184.544 272.73 187.516 275.558 191.182 275.558Z" fill="white"/>
<path d="M205.32 266.235H169.841C169.624 266.235 169.408 266.26 169.198 266.31L152.25 270.541C151.708 270.677 151.229 270.98 150.886 271.402C150.543 271.824 150.356 272.342 150.353 272.876V278.158C150.353 278.8 150.621 279.415 151.097 279.868C151.574 280.321 152.22 280.576 152.894 280.576H188.346C188.564 280.577 188.78 280.549 188.99 280.493L205.929 276.27C206.473 276.135 206.954 275.831 207.298 275.407C207.641 274.983 207.827 274.463 207.826 273.927V268.645C207.826 268.01 207.562 267.401 207.093 266.95C206.624 266.498 205.987 266.242 205.32 266.235Z" fill="#407BFF"/>
<path opacity="0.7" d="M205.32 266.235H169.841C169.624 266.235 169.408 266.26 169.198 266.31L152.25 270.541C151.708 270.677 151.229 270.98 150.886 271.402C150.543 271.824 150.356 272.342 150.353 272.876V278.158C150.353 278.8 150.621 279.415 151.097 279.868C151.574 280.321 152.22 280.576 152.894 280.576H188.346C188.564 280.577 188.78 280.549 188.99 280.493L205.929 276.27C206.473 276.135 206.954 275.831 207.298 275.407C207.641 274.983 207.827 274.463 207.826 273.927V268.645C207.826 268.01 207.562 267.401 207.093 266.95C206.624 266.498 205.987 266.242 205.32 266.235Z" fill="white"/>
<path d="M187.676 280.576C188.009 280.596 188.342 280.549 188.654 280.44C188.967 280.331 189.253 280.161 189.493 279.942C189.733 279.723 189.923 279.458 190.051 279.166C190.178 278.873 190.241 278.558 190.234 278.241V272.958C190.234 272.317 189.966 271.702 189.49 271.249C189.014 270.795 188.368 270.541 187.694 270.541H152.894C152.455 270.528 152.021 270.624 151.633 270.82C151.245 271.017 150.918 271.305 150.684 271.659C150.455 272.027 150.335 272.448 150.336 272.876V278.158C150.336 278.8 150.604 279.415 151.08 279.868C151.556 280.321 152.203 280.576 152.876 280.576H187.676Z" fill="#263238"/>
<path opacity="0.5" d="M187.676 280.576C188.009 280.596 188.342 280.549 188.654 280.44C188.967 280.331 189.253 280.161 189.493 279.942C189.733 279.723 189.923 279.458 190.051 279.166C190.178 278.873 190.241 278.558 190.234 278.241V272.958C190.234 272.317 189.966 271.702 189.49 271.249C189.014 270.795 188.368 270.541 187.694 270.541H152.894C152.455 270.528 152.021 270.624 151.633 270.82C151.245 271.017 150.918 271.305 150.684 271.659C150.455 272.027 150.335 272.448 150.336 272.876V278.158C150.336 278.8 150.604 279.415 151.08 279.868C151.556 280.321 152.203 280.576 152.876 280.576H187.676Z" fill="white"/>
<path d="M158.758 273.886H153.12C152.939 273.886 152.766 273.818 152.637 273.697C152.508 273.576 152.435 273.412 152.433 273.24C152.433 273.067 152.505 272.9 152.634 272.777C152.763 272.655 152.938 272.586 153.12 272.586H158.775C158.957 272.586 159.132 272.655 159.261 272.777C159.39 272.9 159.462 273.067 159.462 273.24C159.462 273.327 159.444 273.413 159.408 273.493C159.373 273.573 159.32 273.645 159.254 273.706C159.189 273.766 159.111 273.813 159.025 273.844C158.94 273.875 158.849 273.889 158.758 273.886Z" fill="white"/>
<path d="M158.758 276.254H153.12C152.939 276.254 152.766 276.186 152.637 276.065C152.508 275.944 152.435 275.78 152.433 275.608C152.433 275.435 152.505 275.268 152.634 275.146C152.763 275.023 152.938 274.954 153.12 274.954H158.775C158.957 274.954 159.132 275.023 159.261 275.146C159.39 275.268 159.462 275.435 159.462 275.608C159.462 275.695 159.444 275.781 159.408 275.861C159.373 275.941 159.32 276.013 159.254 276.074C159.189 276.134 159.111 276.181 159.025 276.212C158.94 276.243 158.849 276.257 158.758 276.254Z" fill="white"/>
<path d="M158.758 278.622H153.12C152.939 278.622 152.766 278.554 152.637 278.433C152.508 278.312 152.435 278.148 152.433 277.976C152.433 277.89 152.45 277.805 152.485 277.726C152.52 277.646 152.57 277.574 152.634 277.514C152.698 277.453 152.774 277.405 152.857 277.372C152.94 277.339 153.03 277.322 153.12 277.322H158.775C158.865 277.322 158.955 277.339 159.038 277.372C159.121 277.405 159.197 277.453 159.261 277.514C159.325 277.574 159.375 277.646 159.41 277.726C159.444 277.805 159.462 277.89 159.462 277.976C159.462 278.063 159.444 278.149 159.408 278.229C159.373 278.309 159.32 278.382 159.254 278.442C159.189 278.502 159.111 278.549 159.025 278.58C158.94 278.611 158.849 278.625 158.758 278.622Z" fill="white"/>
<path d="M183.744 277.38C183.535 277.181 183.252 277.07 182.957 277.07C182.661 277.07 182.378 277.181 182.169 277.38L181.386 276.626C181.592 276.43 181.837 276.274 182.107 276.168C182.376 276.061 182.665 276.007 182.957 276.007C183.248 276.007 183.537 276.061 183.807 276.168C184.076 276.274 184.321 276.43 184.527 276.626L183.744 277.38Z" fill="#407BFF"/>
<path d="M180.725 275.997L179.933 275.244C180.331 274.859 180.805 274.554 181.328 274.345C181.85 274.137 182.412 274.03 182.978 274.03C183.545 274.03 184.106 274.137 184.629 274.345C185.152 274.554 185.626 274.859 186.023 275.244L185.232 275.997C184.628 275.44 183.82 275.128 182.978 275.128C182.137 275.128 181.329 275.44 180.725 275.997Z" fill="#407BFF"/>
<path d="M179.49 274.813L178.698 274.06C179.828 272.986 181.36 272.383 182.957 272.383C184.553 272.383 186.085 272.986 187.215 274.06L186.424 274.813C185.504 273.939 184.257 273.448 182.957 273.448C181.657 273.448 180.41 273.939 179.49 274.813Z" fill="#407BFF"/>
<g opacity="0.3">
<path d="M183.744 277.38C183.535 277.181 183.252 277.07 182.957 277.07C182.661 277.07 182.378 277.181 182.169 277.38L181.386 276.626C181.592 276.43 181.837 276.274 182.107 276.168C182.376 276.061 182.665 276.007 182.957 276.007C183.248 276.007 183.537 276.061 183.807 276.168C184.076 276.274 184.321 276.43 184.527 276.626L183.744 277.38Z" fill="black"/>
<path d="M180.725 275.997L179.933 275.244C180.331 274.859 180.805 274.554 181.328 274.345C181.85 274.137 182.412 274.03 182.978 274.03C183.545 274.03 184.106 274.137 184.629 274.345C185.152 274.554 185.626 274.859 186.023 275.244L185.232 275.997C184.628 275.44 183.82 275.128 182.978 275.128C182.137 275.128 181.329 275.44 180.725 275.997Z" fill="black"/>
<path d="M179.49 274.813L178.698 274.06C179.828 272.986 181.36 272.383 182.957 272.383C184.553 272.383 186.085 272.986 187.215 274.06L186.424 274.813C185.504 273.939 184.257 273.448 182.957 273.448C181.657 273.448 180.41 273.939 179.49 274.813Z" fill="black"/>
</g>
<path d="M369.698 151.251C369.124 154.662 368.619 159.655 371.194 161.833C371.194 161.833 371.194 165.302 361.241 169.384C357.422 164.54 360.076 162.214 360.076 162.214C364.025 161.179 363.86 159.638 363.077 157.022L369.698 151.251Z" fill="#FF8B7B"/>
<path opacity="0.2" d="M367.01 153.577L363.121 157.022C363.313 157.628 363.45 158.248 363.53 158.877C365.052 158.62 367.392 157.312 367.662 155.722C367.634 154.967 367.41 154.23 367.01 153.577Z" fill="black"/>
<path d="M374.1 145.273C372.708 150.895 372.247 153.288 368.706 155.705C363.382 159.34 356.439 156.475 356.039 150.58C355.691 145.273 358.04 136.951 364.286 135.676C365.663 135.382 367.097 135.428 368.449 135.811C369.802 136.193 371.029 136.9 372.013 137.862C372.998 138.825 373.706 140.011 374.071 141.309C374.437 142.606 374.447 143.971 374.1 145.273Z" fill="#FF8B7B"/>
<path d="M364.365 145.198C364.278 145.662 363.956 146.026 363.643 145.943C363.329 145.861 363.129 145.471 363.208 145.008C363.286 144.544 363.625 144.18 363.938 144.262C364.252 144.345 364.426 144.751 364.365 145.198Z" fill="#263238"/>
<path d="M358.884 144.304C358.797 144.776 358.466 145.132 358.153 145.049C357.84 144.966 357.648 144.577 357.727 144.122C357.805 143.666 358.144 143.294 358.457 143.377C358.771 143.459 358.962 143.848 358.884 144.304Z" fill="#263238"/>
<path d="M360.424 145.422C359.797 146.404 359.034 147.301 358.153 148.088C358.372 148.295 358.635 148.455 358.925 148.556C359.215 148.657 359.524 148.698 359.832 148.676L360.424 145.422Z" fill="#F84A35"/>
<path d="M362.146 150.92C361.901 150.918 361.656 150.896 361.415 150.853C361.378 150.847 361.344 150.827 361.321 150.798C361.298 150.769 361.289 150.732 361.294 150.696C361.302 150.66 361.325 150.628 361.357 150.608C361.39 150.588 361.43 150.581 361.468 150.588C362.069 150.699 362.69 150.673 363.279 150.513C363.868 150.354 364.41 150.064 364.861 149.669C364.888 149.643 364.926 149.628 364.965 149.628C365.004 149.628 365.042 149.643 365.069 149.669C365.095 149.697 365.109 149.732 365.109 149.769C365.109 149.805 365.095 149.841 365.069 149.868C364.68 150.219 364.221 150.493 363.719 150.674C363.217 150.854 362.682 150.938 362.146 150.92Z" fill="#263238"/>
<path d="M366.731 143.807C366.682 143.841 366.622 143.86 366.561 143.86C366.5 143.86 366.441 143.841 366.392 143.807C366.007 143.549 365.571 143.369 365.109 143.279C364.648 143.19 364.172 143.192 363.712 143.285C363.674 143.294 363.634 143.295 363.595 143.289C363.557 143.283 363.52 143.269 363.486 143.249C363.453 143.229 363.424 143.203 363.402 143.172C363.38 143.141 363.364 143.107 363.355 143.07C363.34 143 363.354 142.927 363.395 142.866C363.435 142.806 363.499 142.763 363.573 142.747C364.125 142.631 364.696 142.629 365.249 142.742C365.801 142.855 366.322 143.08 366.775 143.401C366.801 143.426 366.823 143.456 366.837 143.488C366.852 143.521 366.859 143.556 366.859 143.592C366.859 143.627 366.852 143.663 366.837 143.695C366.823 143.728 366.801 143.758 366.775 143.782C366.761 143.792 366.746 143.8 366.731 143.807Z" fill="#263238"/>
<path d="M357.274 142.201C357.225 142.187 357.18 142.161 357.144 142.126C357.107 142.092 357.08 142.049 357.065 142.002C357.046 141.932 357.057 141.857 357.094 141.794C357.131 141.731 357.193 141.684 357.265 141.663C357.709 141.536 358.178 141.513 358.633 141.597C359.087 141.68 359.514 141.868 359.875 142.143C359.925 142.193 359.953 142.26 359.953 142.329C359.953 142.398 359.925 142.465 359.875 142.515C359.822 142.565 359.75 142.593 359.675 142.593C359.601 142.593 359.529 142.565 359.475 142.515C359.187 142.306 358.85 142.165 358.493 142.105C358.136 142.044 357.769 142.066 357.422 142.168C357.377 142.191 357.326 142.202 357.274 142.201Z" fill="#263238"/>
<path d="M331.74 181.282L324.414 174.526L323.962 171.214C323.919 170.889 323.787 170.58 323.58 170.318C323.372 170.057 323.096 169.851 322.779 169.723L321.317 169.136C320.911 168.968 320.574 168.677 320.36 168.308L319.847 167.413C319.707 167.173 319.513 166.964 319.279 166.803C319.045 166.641 318.777 166.53 318.493 166.478C318.21 166.426 317.917 166.434 317.637 166.501C317.357 166.568 317.095 166.693 316.871 166.867C316.643 167.042 316.459 167.264 316.332 167.517C316.206 167.769 316.14 168.045 316.141 168.324V173.052C316.14 173.369 316.224 173.68 316.385 173.957C316.547 174.234 316.78 174.467 317.063 174.634L321.543 177.333L328.86 185.704L331.74 181.282Z" fill="#FF8B7B"/>
<path d="M354.96 162.586C354.96 162.586 350.062 163.414 340.84 180.239L339.3 182.988C339.105 183.328 338.833 183.622 338.503 183.849C338.174 184.076 337.795 184.23 337.395 184.3C336.994 184.37 336.583 184.354 336.19 184.253C335.797 184.152 335.433 183.969 335.124 183.717L329.73 179.32L326.32 184.122C326.32 184.122 335.159 194.944 340.24 194.1C345.32 193.255 351.48 179.063 351.48 179.063C351.48 179.063 359.005 160.45 354.96 162.586Z" fill="#407BFF"/>
<path opacity="0.1" d="M344.189 191.268C348.035 186.921 351.48 179.038 351.48 179.038C351.48 179.038 352.785 175.818 354.012 172.207L349.583 169.326C349.583 169.326 344.807 183.816 344.189 191.268Z" fill="black"/>
<path d="M361.015 323.831L360.041 334.843L353.551 334.462L353.455 323.872L361.015 323.831Z" fill="#FF8B7B"/>
<path d="M350.68 334.694C349.974 334.77 349.264 334.592 348.687 334.197C348.614 334.101 348.574 333.985 348.574 333.866C348.574 333.747 348.614 333.631 348.687 333.535C348.803 333.361 348.983 333.234 349.192 333.179C350.323 332.889 352.672 334.181 352.785 334.239C352.813 334.255 352.835 334.278 352.849 334.306C352.863 334.334 352.868 334.365 352.863 334.396C352.857 334.427 352.841 334.455 352.818 334.477C352.795 334.499 352.765 334.514 352.733 334.52C352.055 334.635 351.368 334.693 350.68 334.694ZM349.601 333.436C349.498 333.438 349.396 333.452 349.296 333.477C349.23 333.486 349.167 333.511 349.112 333.548C349.057 333.586 349.013 333.635 348.983 333.692C348.861 333.874 348.905 333.974 348.983 334.023C349.296 334.446 351.001 334.462 352.263 334.313C351.443 333.861 350.539 333.563 349.601 333.436Z" fill="#407BFF"/>
<path d="M352.724 334.512C352.714 334.518 352.702 334.521 352.689 334.521C352.677 334.521 352.665 334.518 352.655 334.512C351.845 334.173 350.227 332.765 350.375 332.028C350.375 331.846 350.532 331.639 350.975 331.598C351.132 331.584 351.289 331.601 351.439 331.646C351.588 331.692 351.726 331.765 351.845 331.862C352.715 332.541 352.881 334.28 352.889 334.346C352.892 334.369 352.889 334.391 352.88 334.412C352.871 334.432 352.857 334.451 352.839 334.465C352.82 334.479 352.799 334.488 352.776 334.492C352.753 334.496 352.729 334.494 352.707 334.487L352.724 334.512ZM351.08 331.896H350.984C350.697 331.896 350.68 332.028 350.671 332.069C350.627 332.508 351.689 333.601 352.524 334.082C352.449 333.351 352.146 332.659 351.654 332.094C351.497 331.971 351.3 331.903 351.097 331.904L351.08 331.896Z" fill="#407BFF"/>
<path d="M353.446 333.626H360.841C360.976 333.627 361.107 333.672 361.211 333.753C361.316 333.835 361.388 333.948 361.415 334.073L362.729 339.803C362.786 340.047 362.74 340.302 362.599 340.513C362.459 340.724 362.237 340.874 361.981 340.929C361.912 340.937 361.841 340.937 361.772 340.929C359.11 340.871 356.735 340.722 353.42 340.714C349.505 340.714 350.497 341.153 345.895 341.194C343.119 341.194 342.623 338.213 343.798 338.072C349.183 337.451 349.749 335.903 351.837 334.081C352.296 333.746 352.869 333.584 353.446 333.626Z" fill="#263238"/>
<path opacity="0.2" d="M360.432 330.405L353.507 330.264L353.455 323.872L361.015 323.831L360.432 330.405Z" fill="#263238"/>
<path d="M351.097 214.021C351.097 214.021 349.557 253.236 349.583 266.31C349.627 281.694 352.428 327.805 352.428 327.805H361.52C363.533 314.885 364.551 301.843 364.565 288.782C364.504 281.826 362.903 274.855 363.608 268.479C365.104 254.8 370.803 249.725 370.994 214.021H351.097Z" fill="#263238"/>
<path opacity="0.2" d="M366.592 232.403L363.851 229.132C362.573 242.536 362.462 256.018 363.521 269.439C363.521 269.117 363.573 268.794 363.608 268.479C364.6 259.371 367.444 254.113 369.298 241.155L366.592 232.403Z" fill="black"/>
<path d="M380.999 323.599L380.729 334.653H374.222L373.456 324.088L380.999 323.599Z" fill="#FF8B7B"/>
<path d="M371.098 334.694C370.395 334.768 369.689 334.591 369.115 334.197C369.041 334.101 369.002 333.985 369.002 333.866C369.002 333.747 369.041 333.631 369.115 333.535C369.231 333.361 369.411 333.234 369.62 333.179C370.751 332.889 373.1 334.181 373.213 334.239C373.24 334.255 373.263 334.278 373.277 334.306C373.291 334.334 373.296 334.365 373.291 334.396C373.285 334.427 373.269 334.455 373.246 334.477C373.222 334.499 373.193 334.514 373.16 334.52C372.48 334.635 371.79 334.693 371.098 334.694ZM370.028 333.436C369.925 333.437 369.823 333.45 369.724 333.477C369.657 333.486 369.594 333.511 369.54 333.548C369.485 333.586 369.441 333.635 369.411 333.692C369.289 333.874 369.332 333.974 369.411 334.023C369.724 334.446 371.429 334.462 372.691 334.313C371.87 333.861 370.967 333.563 370.028 333.436Z" fill="#407BFF"/>
<path d="M373.152 334.512C373.141 334.518 373.129 334.521 373.117 334.521C373.105 334.521 373.093 334.518 373.082 334.512C372.273 334.173 370.655 332.765 370.803 332.028C370.803 331.846 370.959 331.639 371.403 331.598C371.559 331.584 371.717 331.601 371.866 331.646C372.016 331.692 372.154 331.765 372.273 331.862C373.143 332.541 373.308 334.28 373.317 334.346C373.318 334.373 373.311 334.4 373.297 334.423C373.283 334.446 373.263 334.466 373.239 334.479C373.215 334.499 373.184 334.511 373.152 334.512ZM371.49 331.904H371.394C371.107 331.904 371.09 332.036 371.072 332.078C371.029 332.517 372.099 333.61 372.934 334.09C372.863 333.359 372.56 332.665 372.064 332.103C371.91 331.981 371.716 331.914 371.516 331.912L371.49 331.904Z" fill="#407BFF"/>
<path d="M373.874 333.626H381.26C381.396 333.627 381.528 333.671 381.634 333.753C381.74 333.834 381.813 333.947 381.843 334.073L383.157 339.803C383.214 340.047 383.167 340.302 383.027 340.513C382.887 340.724 382.664 340.874 382.408 340.929C382.339 340.937 382.269 340.937 382.2 340.929C379.538 340.871 377.162 340.722 373.848 340.714C369.933 340.714 370.925 341.153 366.322 341.194C363.547 341.194 363.051 338.213 364.226 338.072C369.611 337.451 370.176 335.903 372.264 334.081C372.724 333.746 373.297 333.584 373.874 333.626Z" fill="#263238"/>
<path opacity="0.2" d="M380.834 330.198L373.917 330.455L373.456 324.088L380.999 323.599L380.834 330.198Z" fill="#263238"/>
<path d="M362.851 214.021C362.851 214.021 365.513 254.138 366.383 267.51C367.366 282.588 372.473 327.805 372.473 327.805H381.765C381.765 327.805 383.365 307.569 383.113 289.022C383.009 281.156 380.399 273.745 380.242 267.999C380.042 260.547 384.592 233.72 381.808 211.985L362.851 214.021Z" fill="#263238"/>
<path d="M357.796 162.081C352.402 162.727 348.452 163.886 348.705 181.2C348.957 198.513 349.74 215.818 349.74 215.818H382.8C382.8 215.818 381.278 189.372 382.8 178.558C384.323 167.745 383.305 162.445 376.232 162.081C369.158 161.717 362.555 161.518 357.796 162.081Z" fill="#407BFF"/>
<path d="M359.815 160.218V162.421C359.815 162.421 360.537 164.606 366.775 164.491C373.012 164.375 373.552 161.733 373.552 161.733V160.135C373.552 159.865 373.49 159.598 373.368 159.353C373.247 159.109 373.07 158.893 372.85 158.722C372.63 158.55 372.373 158.428 372.097 158.363C371.821 158.298 371.534 158.293 371.255 158.347C368.163 158.828 365.01 158.847 361.911 158.405C361.646 158.38 361.378 158.409 361.125 158.489C360.872 158.57 360.639 158.699 360.441 158.87C360.244 159.041 360.086 159.249 359.978 159.481C359.87 159.713 359.815 159.964 359.815 160.218Z" fill="#407BFF"/>
<path opacity="0.1" d="M328.355 186.358L331.6 180.786L330.008 179.486L326.859 184.694C327.207 185.099 327.72 185.679 328.355 186.358Z" fill="black"/>
<path d="M328.999 177.772L325.015 183.907L326.346 186.49L331.148 179.096L328.999 177.772Z" fill="#407BFF"/>
<path opacity="0.1" d="M366.809 164.491C360.537 164.606 359.849 162.421 359.849 162.421V161.899C359.849 161.899 358.005 165.302 363.451 165.848C368.897 166.395 372.499 163.903 373.256 162.421C372.621 163.199 371.012 164.408 366.809 164.491Z" fill="black"/>
<path opacity="0.1" d="M382.53 171.843H377.711C377.711 171.843 380.373 181.829 382.191 187.708C382.234 184.664 382.44 181.624 382.809 178.6C383.061 176.77 383.235 175.114 383.331 173.632L382.53 171.843Z" fill="black"/>
<path d="M387.098 199.954L382.8 211.314L379.424 213.624C379.192 213.782 379.002 213.991 378.87 214.233C378.739 214.475 378.669 214.743 378.667 215.015V216.936C378.668 217.11 378.641 217.283 378.589 217.449C378.515 217.671 378.49 217.905 378.514 218.136C378.539 218.368 378.613 218.592 378.732 218.795C378.851 218.998 379.012 219.176 379.206 219.318C379.4 219.459 379.622 219.562 379.859 219.619L382.269 220.173C382.609 220.259 382.968 220.244 383.298 220.132C383.629 220.02 383.916 219.815 384.122 219.544L385.862 217.292C386.097 217 386.222 216.641 386.219 216.274V212.962L391.622 201.486L387.098 199.954Z" fill="#FF8B7B"/>
<path d="M376.24 162.081C378.497 162.403 380.647 163.209 382.528 164.439C384.409 165.668 385.972 167.288 387.098 169.177C391.265 175.801 395.058 190.332 393.919 196.104C393.402 199.154 392.527 202.14 391.309 205.005L385.219 202.719C386.45 199.755 386.976 196.568 386.758 193.388C386.254 188.652 376.527 170.262 376.275 168.092C376.023 165.923 373.961 162.57 376.24 162.081Z" fill="#407BFF"/>
<path opacity="0.1" d="M386.028 200.252C385.793 201.096 385.502 201.926 385.158 202.736L391.248 205.021C391.655 204.124 392.009 203.207 392.309 202.272L386.028 200.252Z" fill="black"/>
<path d="M384.131 203.754L391.317 206.048L393.658 204.226L385.001 201.461L384.131 203.754Z" fill="#407BFF"/>
<path d="M363.782 139.22C361.676 138.69 356.343 136.877 358.866 132.372C361.389 127.868 362.051 133.573 364.252 133.929C366.453 134.285 374.152 133.995 374.692 140.305C374.692 140.305 377.223 144.155 373.561 149.479C373.561 149.479 370.742 149.015 371.168 146.796C371.594 144.577 370.542 144.147 369.68 143.426C368.819 142.706 369.454 140.305 369.454 140.305C369.454 140.305 365.191 139.576 363.782 139.22Z" fill="#263238"/>
<path d="M374.97 149.909C374.408 150.867 373.469 151.573 372.36 151.872C370.881 152.253 370.15 151.044 370.559 149.669C370.942 148.485 372.16 146.846 373.639 147.02C374.152 147.099 374.61 147.368 374.915 147.769C375.22 148.169 375.346 148.668 375.266 149.156C375.223 149.424 375.122 149.68 374.97 149.909Z" fill="#FF8B7B"/>
<path d="M371.246 145.347L367.227 144.743C366.879 143.766 365.435 143.55 364.817 143.451C364.199 143.352 362.642 143.128 362.033 144.072L360.632 143.857C360.363 142.78 358.823 142.548 358.188 142.449C357.553 142.35 355.447 142.035 355.177 143.658C355.137 144.314 355.354 144.962 355.787 145.475C356.219 145.987 356.837 146.328 357.519 146.431C358.202 146.535 358.9 146.393 359.479 146.033C360.057 145.674 360.475 145.122 360.65 144.486C360.65 144.395 360.65 144.312 360.65 144.229L361.85 144.412C361.822 144.496 361.799 144.581 361.781 144.668C361.74 145.325 361.957 145.972 362.39 146.485C362.823 146.997 363.44 147.338 364.123 147.442C364.805 147.545 365.504 147.403 366.082 147.043C366.661 146.684 367.078 146.132 367.253 145.496C367.27 145.37 367.27 145.242 367.253 145.115L371.142 145.711C371.674 145.788 372.16 146.04 372.517 146.424L372.804 146.192C372.398 145.753 371.85 145.456 371.246 145.347ZM357.579 146.051C356.986 145.994 356.44 145.717 356.061 145.28C355.681 144.843 355.498 144.281 355.552 143.716C355.699 142.83 356.474 142.557 358.162 142.805C359.849 143.054 360.458 143.542 360.31 144.461C360.168 145.018 359.8 145.498 359.286 145.796C358.772 146.094 358.155 146.186 357.57 146.051H357.579ZM364.217 147.061C363.622 147.004 363.074 146.727 362.693 146.288C362.311 145.849 362.128 145.285 362.181 144.718C362.329 143.832 363.103 143.559 364.791 143.807C366.479 144.055 367.088 144.544 366.94 145.463C366.872 145.739 366.748 145.999 366.575 146.229C366.401 146.458 366.181 146.653 365.928 146.802C365.675 146.95 365.393 147.05 365.1 147.094C364.806 147.139 364.506 147.127 364.217 147.061Z" fill="#263238"/>
<g opacity="0.2">
<path d="M360.041 235.326L356.056 239.118C357.784 241.047 359.005 243.338 359.621 245.804C360.237 248.269 360.229 250.839 359.598 253.301C358.967 255.763 357.731 258.048 355.991 259.966C354.252 261.885 352.059 263.384 349.592 264.339C349.592 265.043 349.592 265.714 349.592 266.31C349.592 267.394 349.592 268.645 349.644 270.011C353.268 268.989 356.562 267.114 359.222 264.559C361.883 262.004 363.823 258.852 364.864 255.395C365.904 251.937 366.012 248.285 365.177 244.777C364.341 241.269 362.59 238.019 360.084 235.326H360.041Z" fill="black"/>
<path d="M374.822 147.218C375.325 146.159 375.585 145.011 375.585 143.848C375.585 142.686 375.325 141.537 374.822 140.479V147.218Z" fill="black"/>
<path d="M375.283 149.156C375.325 148.889 375.306 148.617 375.226 148.358C375.147 148.099 375.009 147.86 374.822 147.657V150.141C374.866 150.075 374.927 150.017 374.97 149.943C375.133 149.705 375.24 149.437 375.283 149.156Z" fill="black"/>
<path d="M358.118 233.496C355.905 231.636 353.326 230.212 350.532 229.306C350.471 231.12 350.41 233.024 350.34 234.978C351.708 235.582 352.984 236.359 354.133 237.288L358.118 233.496Z" fill="black"/>
</g>
<path d="M77.5083 337.973L76.8123 349.764L83.7375 350.294L85.5036 339.107L77.5083 337.973Z" fill="#FF8B7B"/>
<path d="M85.3644 349.938C85.3308 349.93 85.3001 349.913 85.2755 349.89C85.251 349.866 85.2336 349.837 85.2252 349.805C85.2167 349.772 85.2197 349.737 85.2338 349.706C85.2479 349.674 85.2724 349.648 85.3035 349.631C85.4166 349.573 87.9135 348.191 89.1489 348.497C89.2608 348.523 89.3662 348.57 89.4588 348.636C89.5514 348.701 89.6294 348.783 89.6883 348.878C89.765 348.982 89.8062 349.106 89.8062 349.234C89.8062 349.361 89.765 349.486 89.6883 349.59C89.0727 350.008 88.3174 350.196 87.5655 350.12C86.8276 350.121 86.0911 350.06 85.3644 349.938ZM85.9212 349.714C87.2697 349.871 89.088 349.847 89.4012 349.399C89.4012 349.342 89.4882 349.242 89.4012 349.043C89.3673 348.983 89.3189 348.932 89.2599 348.893C89.2009 348.854 89.133 348.829 89.0619 348.82C88.9524 348.803 88.8408 348.803 88.7313 348.82C87.7433 348.945 86.7896 349.249 85.9212 349.714Z" fill="#407BFF"/>
<path d="M85.26 349.929C85.2345 349.914 85.2143 349.891 85.2019 349.865C85.1896 349.838 85.1856 349.809 85.1904 349.78C85.1904 349.689 85.3818 347.834 86.2953 347.106C86.5628 346.895 86.9068 346.794 87.2523 346.824C87.7221 346.866 87.87 347.098 87.8961 347.28C88.0527 348.058 86.3127 349.557 85.4514 349.929H85.3818C85.3627 349.938 85.3419 349.942 85.3209 349.942C85.2999 349.942 85.2792 349.938 85.26 349.929ZM87.1392 347.139C86.9218 347.135 86.7107 347.209 86.5476 347.346C86.0099 347.94 85.6786 348.677 85.5993 349.457C86.4693 348.952 87.6264 347.801 87.5829 347.313C87.5829 347.313 87.5829 347.156 87.2349 347.131L87.1392 347.139Z" fill="#407BFF"/>
<path d="M84.6162 348.977H76.7166C76.5724 348.981 76.4335 349.03 76.3217 349.117C76.2099 349.204 76.1316 349.324 76.0989 349.457L74.6982 355.576C74.6674 355.706 74.6636 355.84 74.6871 355.97C74.7106 356.101 74.761 356.226 74.8353 356.339C74.9096 356.451 75.0065 356.548 75.1203 356.625C75.2341 356.701 75.3627 356.756 75.4986 356.785C75.5738 356.794 75.6497 356.794 75.7248 356.785C78.5697 356.727 81.1014 356.562 84.651 356.553C88.8357 356.553 87.7743 357.017 92.6898 357.067C95.6565 357.067 96.1698 353.887 94.9257 353.755C89.175 353.092 88.566 351.436 86.3388 349.491C85.8504 349.124 85.2372 348.941 84.6162 348.977Z" fill="#263238"/>
<path opacity="0.2" d="M77.0908 345.019L84.4423 345.856L85.5037 339.107L77.5084 337.973L77.0908 345.019Z" fill="#263238"/>
<path d="M90.48 206.934C90.48 206.934 83.3025 211.455 82.8588 226.673C82.5369 237.669 83.2851 261.267 83.7288 273.546C83.8877 277.935 83.3778 282.322 82.215 286.571C80.1792 294.023 76.995 310.483 76.0641 343.206H85.5297C85.5297 343.206 95.7697 301.028 98.6668 281.744C101.564 262.459 106.236 206.934 106.236 206.934H90.48Z" fill="#263238"/>
<path opacity="0.4" d="M103.965 232.544L96.3438 230.581C96.3438 230.581 97.0659 255.479 100.007 271.451C101.329 260.232 102.791 245.245 103.965 232.544Z" fill="black"/>
<path d="M106.07 340.523L106.358 352.331H113.309L114.135 341.037L106.07 340.523Z" fill="#FF8B7B"/>
<path d="M114.431 352.198C114.397 352.19 114.367 352.173 114.342 352.15C114.318 352.127 114.3 352.098 114.292 352.066C114.283 352.032 114.286 351.998 114.301 351.966C114.315 351.935 114.339 351.909 114.37 351.892C114.483 351.834 116.98 350.451 118.216 350.757C118.328 350.784 118.433 350.831 118.525 350.896C118.618 350.962 118.696 351.044 118.755 351.138C118.832 351.243 118.873 351.367 118.873 351.494C118.873 351.622 118.832 351.746 118.755 351.85C118.139 352.268 117.384 352.457 116.632 352.38C115.894 352.381 115.158 352.32 114.431 352.198ZM114.988 351.974C116.336 352.124 118.155 352.107 118.468 351.66C118.511 351.602 118.555 351.503 118.468 351.304C118.433 351.244 118.384 351.192 118.326 351.152C118.267 351.111 118.2 351.084 118.129 351.072C118.019 351.055 117.908 351.055 117.798 351.072C116.809 351.2 115.856 351.506 114.988 351.974Z" fill="#407BFF"/>
<path d="M114.335 352.19C114.31 352.174 114.29 352.152 114.277 352.125C114.265 352.099 114.261 352.069 114.266 352.041C114.266 351.95 114.457 350.095 115.371 349.366C115.502 349.26 115.655 349.181 115.819 349.133C115.983 349.084 116.157 349.068 116.328 349.085C116.798 349.085 116.945 349.358 116.972 349.54C117.128 350.318 115.388 351.817 114.527 352.19H114.457C114.438 352.198 114.417 352.202 114.396 352.202C114.375 352.202 114.355 352.198 114.335 352.19ZM116.215 349.399C115.997 349.396 115.786 349.469 115.623 349.606C115.085 350.2 114.754 350.938 114.675 351.718C115.545 351.213 116.702 350.062 116.658 349.573C116.658 349.532 116.658 349.408 116.31 349.391L116.215 349.399Z" fill="#407BFF"/>
<path d="M113.683 351.238H105.783C105.639 351.241 105.5 351.291 105.388 351.377C105.277 351.464 105.198 351.584 105.166 351.718L103.765 357.837C103.734 357.966 103.73 358.1 103.754 358.231C103.777 358.362 103.828 358.487 103.902 358.599C103.976 358.711 104.073 358.808 104.187 358.885C104.301 358.962 104.429 359.016 104.565 359.046H104.792C107.636 358.988 110.168 358.822 113.718 358.814C117.902 358.814 116.841 359.277 121.757 359.327C124.723 359.327 125.237 356.148 123.992 356.015C118.242 355.353 117.633 353.697 115.406 351.751C114.917 351.384 114.304 351.201 113.683 351.238Z" fill="#263238"/>
<path opacity="0.2" d="M106.244 347.578L113.639 347.851L114.135 341.037L106.07 340.523L106.244 347.578Z" fill="#263238"/>
<path d="M97.327 210.883C97.327 210.883 92.8204 222.012 98.197 241.403C100.45 249.526 104.383 274.474 104.383 274.474C105.185 278.852 105.247 283.325 104.565 287.722C103.757 293.301 103.411 298.932 103.53 304.563C103.756 319.186 104.87 345.466 104.87 345.466H114.884C114.884 345.466 120.452 296.557 120.452 280.187C120.452 262.385 114.44 209.194 114.44 209.194L97.327 210.883Z" fill="#263238"/>
<path d="M97.0485 167.529C97.0485 167.529 101.268 166.883 100.737 159.456C100.737 159.456 104.548 157.535 107.219 159.589C109.89 161.642 105.383 167.041 108.672 169.011C108.672 169.011 106.01 170.941 97.0485 167.529Z" fill="#FF8B7B"/>
<path d="M114.483 148.212C114.483 147.715 114.779 147.309 115.118 147.318C115.458 147.326 115.736 147.732 115.727 148.229C115.719 148.725 115.432 149.131 115.092 149.123C114.753 149.115 114.475 148.734 114.483 148.212Z" fill="#263238"/>
<path d="M114.257 149.115L117.224 152.427C116.814 152.755 116.329 152.988 115.809 153.109C115.288 153.229 114.745 153.234 114.222 153.122L114.257 149.115Z" fill="#FF5652"/>
<path d="M112.326 146.821C112.375 146.829 112.426 146.827 112.474 146.814C112.522 146.801 112.567 146.778 112.604 146.746C112.871 146.481 113.2 146.28 113.565 146.161C113.93 146.041 114.319 146.006 114.701 146.059C114.78 146.074 114.863 146.059 114.931 146.017C114.999 145.976 115.048 145.911 115.066 145.836C115.08 145.76 115.063 145.683 115.02 145.618C114.976 145.554 114.909 145.507 114.831 145.488C114.352 145.414 113.86 145.45 113.399 145.594C112.937 145.738 112.518 145.986 112.178 146.316C112.123 146.369 112.092 146.44 112.092 146.515C112.092 146.589 112.123 146.661 112.178 146.713C112.214 146.763 112.266 146.801 112.326 146.821Z" fill="#263238"/>
<path d="M115.214 156.591C114.99 157.872 114.376 159.061 113.448 160.012C112.52 160.963 111.319 161.633 109.994 161.94C109.362 162.098 108.715 162.198 108.063 162.238C105.486 162.378 102.925 161.768 100.72 160.491C97.2399 157.403 97.0659 154.695 96.3699 148.46C96.2008 147.135 96.3648 145.789 96.8484 144.536C97.2494 143.471 97.8668 142.492 98.6653 141.655C99.4639 140.817 100.428 140.138 101.502 139.655C102.577 139.172 103.741 138.895 104.928 138.841C106.114 138.786 107.301 138.954 108.419 139.336C115.014 141.588 116.363 150.87 115.214 156.591Z" fill="#FF8B7B"/>
<path opacity="0.2" d="M110.038 161.924C109.405 162.082 108.759 162.182 108.106 162.222L108.393 160.309C108.393 160.309 109.063 161.675 110.038 161.924Z" fill="black"/>
<path d="M114.997 147.384L116.423 147.102C116.423 147.102 115.614 148.08 114.997 147.384Z" fill="#263238"/>
<path d="M106.871 137.448C106.871 137.448 114.161 136.454 116.162 142.176C118.163 147.897 112.822 140.52 111.517 140.338C110.212 140.156 114.918 145.554 108.672 152.195L103.608 160.831C103.608 160.831 101.651 160.259 100.772 161.178C100.772 161.178 96.7005 160.028 95.7348 152.195C94.7691 144.362 96.57 137.125 106.871 137.448Z" fill="#263238"/>
<path d="M108.672 151.16C108.672 151.16 111.404 150.265 111.769 151.888C112.134 153.511 110.908 151.524 108.672 151.16Z" fill="#263238"/>
<path d="M101.364 160.69C101.364 160.69 97.701 160.922 98.3709 162.47C99.0408 164.018 99.0843 161.385 101.364 160.69Z" fill="#263238"/>
<path d="M96.892 141.985C96.892 141.985 84.5989 135.883 82.8676 144.883C81.1363 153.884 88.1572 156.881 84.799 162.876C81.4408 168.871 89.7841 164.714 91.3066 158.81C92.8291 152.907 94.3342 148.485 96.892 148.419C97.3503 148.004 97.7152 147.505 97.9645 146.952C98.2139 146.399 98.3425 145.804 98.3425 145.202C98.3425 144.6 98.2139 144.005 97.9645 143.452C97.7152 142.899 97.3503 142.4 96.892 141.985Z" fill="#263238"/>
<path d="M96.8919 141.985C96.8919 141.985 96.3438 141.712 95.4738 141.373C96.5282 143.742 96.6058 146.403 95.6913 148.825C96.0443 148.587 96.4604 148.45 96.8919 148.427C97.3516 148.013 97.7176 147.513 97.9678 146.959C98.218 146.406 98.347 145.809 98.347 145.206C98.347 144.604 98.218 144.007 97.9678 143.453C97.7176 142.9 97.3516 142.4 96.8919 141.985Z" fill="#407BFF"/>
<path d="M108.263 149.943C109.316 150.751 109.989 151.924 110.133 153.205C110.307 154.911 108.628 155.482 107.106 154.77C105.722 154.132 103.982 152.476 104.496 150.878C104.616 150.528 104.827 150.211 105.109 149.959C105.392 149.706 105.736 149.525 106.111 149.432C106.486 149.339 106.879 149.337 107.255 149.426C107.631 149.515 107.978 149.693 108.263 149.943Z" fill="#FF8B7B"/>
<path d="M109.89 156.691C110.567 156.691 111.116 156.168 111.116 155.523C111.116 154.878 110.567 154.356 109.89 154.356C109.212 154.356 108.663 154.878 108.663 155.523C108.663 156.168 109.212 156.691 109.89 156.691Z" fill="#407BFF"/>
<path opacity="0.7" d="M109.89 156.691C110.567 156.691 111.116 156.168 111.116 155.523C111.116 154.878 110.567 154.356 109.89 154.356C109.212 154.356 108.663 154.878 108.663 155.523C108.663 156.168 109.212 156.691 109.89 156.691Z" fill="white"/>
<path d="M91.959 168.382C91.959 168.382 84.1899 168.929 79.9617 177.399C75.7335 185.869 72.8364 201.775 82.8588 202.198C92.8812 202.62 91.959 200.293 91.959 200.293V196.054L85.5384 194.216C85.2181 194.125 84.9205 193.973 84.6639 193.77C84.4072 193.566 84.1967 193.315 84.0453 193.031C83.8939 192.748 83.8048 192.438 83.7832 192.12C83.7617 191.803 83.8083 191.485 83.9202 191.185L87.2958 182.077L91.959 168.382Z" fill="#407BFF"/>
<path opacity="0.1" d="M91.959 168.382C91.959 168.382 84.1899 168.929 79.9617 177.399C75.7335 185.869 72.8364 201.775 82.8588 202.198C92.8812 202.62 91.959 200.293 91.959 200.293V196.054L85.5384 194.216C85.2181 194.125 84.9205 193.973 84.6639 193.77C84.4072 193.566 84.1967 193.315 84.0453 193.031C83.8939 192.748 83.8048 192.438 83.7832 192.12C83.7617 191.803 83.8083 191.485 83.9202 191.185L87.2958 182.077L91.959 168.382Z" fill="black"/>
<path d="M97.0051 170.245C97.0051 170.245 94.5604 164.391 97.0051 164.499C99.4498 164.606 109.185 166.088 111.482 165.658C113.779 165.227 107.584 170.957 107.584 170.957L97.0051 170.245Z" fill="#407BFF"/>
<path d="M97.0051 170.245C97.0051 170.245 94.5604 164.391 97.0051 164.499C99.4498 164.606 109.185 166.088 111.482 165.658C113.779 165.227 107.584 170.957 107.584 170.957L97.0051 170.245Z" fill="#263238"/>
<path d="M85.7472 212.796C86.8046 210.01 87.3148 207.063 87.2523 204.102C86.913 195.184 85.3905 181.125 84.6423 175.511C83.7201 168.622 93.5511 167.231 103.782 167.869C114.014 168.506 119.808 168.291 118.694 179.734C117.581 191.177 115.371 212.796 115.371 212.796H85.7472Z" fill="#407BFF"/>
<path opacity="0.1" d="M118.546 181.332C117.95 180.536 117.296 179.781 116.589 179.072L112.682 179.9C112.682 179.9 113.9 193.876 116.954 197.196C117.502 191.823 118.094 185.977 118.546 181.332Z" fill="black"/>
<path d="M112.23 168.647C114.058 168.553 115.869 169.025 117.392 169.992C118.915 170.959 120.068 172.37 120.678 174.012C122.418 178.31 125.985 187.848 127.786 192.767C127.883 193.027 128.058 193.255 128.289 193.422C128.52 193.59 128.797 193.69 129.086 193.71C129.376 193.73 129.665 193.67 129.919 193.536C130.174 193.402 130.381 193.201 130.517 192.957L132.927 188.635C132.927 188.635 136.486 189.272 137.825 192.237C139.165 195.201 131.144 203.274 126.907 203.257C122.218 203.257 116.102 192.32 114.44 187.294C112.42 181.277 111.669 174.94 112.23 168.647Z" fill="#407BFF"/>
<path d="M132.962 190.034L135.711 185.58C135.711 185.58 134.154 182.806 135.181 181.017C136.207 179.229 137.208 180.67 138.191 180.123C139.174 179.577 141.392 175.693 142.463 177.639C143.533 179.585 144.855 182.947 139.365 186.921L136.399 194.009L132.962 190.034Z" fill="#FF8B7B"/>
<path d="M133.371 188.163C134.578 188.4 135.692 188.951 136.589 189.755C137.486 190.559 138.131 191.585 138.452 192.717V192.816C138.53 193.222 139.07 196.269 138.452 196.319C137.834 196.368 136.955 193.462 131.901 190.928C131.824 190.893 131.755 190.843 131.7 190.781C131.645 190.718 131.605 190.645 131.582 190.567C131.558 190.489 131.553 190.406 131.566 190.326C131.579 190.246 131.61 190.169 131.657 190.1L132.736 188.403C132.803 188.305 132.9 188.23 133.013 188.187C133.127 188.144 133.252 188.136 133.371 188.163Z" fill="#407BFF"/>
<path d="M133.371 188.163C134.578 188.4 135.692 188.951 136.589 189.755C137.486 190.559 138.131 191.585 138.452 192.717V192.816C138.53 193.222 139.07 196.269 138.452 196.319C137.834 196.368 136.955 193.462 131.901 190.928C131.824 190.893 131.755 190.843 131.7 190.781C131.645 190.718 131.605 190.645 131.582 190.567C131.558 190.489 131.553 190.406 131.566 190.326C131.579 190.246 131.61 190.169 131.657 190.1L132.736 188.403C132.803 188.305 132.9 188.23 133.013 188.187C133.127 188.144 133.252 188.136 133.371 188.163Z" fill="#263238"/>
<path opacity="0.1" d="M103.791 167.869C100.144 167.581 96.4746 167.695 92.8552 168.208C93.6034 169.102 95.4652 169.988 99.8152 170.187C106.218 170.477 107.088 169.078 109.55 168.266C107.88 168.084 105.914 168.001 103.791 167.869Z" fill="black"/>
</svg>
