<svg width="100" height="100" viewBox="0 0 100 100" fill="none" xmlns="http://www.w3.org/2000/svg">
<g filter="url(#filter0_d_12_623)">
<path d="M81.625 27.8749C77.4715 26.9616 73.7141 24.7559 70.892 21.5745C68.0699 18.393 66.3281 14.3994 65.9167 10.1666V8.33325H51.5417V65.2916C51.5446 67.8189 50.7522 70.2831 49.2768 72.3351C47.8014 74.3871 45.7178 75.9228 43.3211 76.7248C40.9244 77.5268 38.3361 77.5544 35.9228 76.8036C33.5096 76.0528 31.3937 74.5617 29.875 72.5416C28.5144 70.7534 27.6812 68.6202 27.4697 66.3832C27.2582 64.1463 27.6768 61.8947 28.6782 59.8832C29.6796 57.8718 31.2239 56.1806 33.1363 55.001C35.0487 53.8214 37.253 53.2004 39.5 53.2083C40.7427 53.2011 41.9791 53.3838 43.1667 53.7499V39.1666C41.7847 38.9954 40.3921 38.9258 39 38.9583C33.8721 39.0953 28.8955 40.7246 24.6795 43.6469C20.4635 46.5691 17.1912 50.6573 15.2632 55.4109C13.3353 60.1645 12.8353 65.3772 13.8246 70.4106C14.814 75.444 17.2496 80.0796 20.8333 83.7499C24.5062 87.4841 29.2062 90.0422 34.3362 91.0991C39.4662 92.156 44.7946 91.664 49.6444 89.6857C54.4942 87.7074 58.6464 84.332 61.5734 79.9885C64.5005 75.6449 66.0703 70.5293 66.0833 65.2916V36.1249C71.8811 40.2664 78.8334 42.4818 85.9583 42.4582V28.2916C84.5588 28.2974 83.1624 28.1577 81.7917 27.8749H81.625Z" fill="white"/>
</g>
<defs>
<filter id="filter0_d_12_623" x="-4" y="0" width="108" height="108" filterUnits="userSpaceOnUse" color-interpolation-filters="sRGB">
<feFlood flood-opacity="0" result="BackgroundImageFix"/>
<feColorMatrix in="SourceAlpha" type="matrix" values="0 0 0 0 0 0 0 0 0 0 0 0 0 0 0 0 0 0 127 0" result="hardAlpha"/>
<feOffset dy="4"/>
<feGaussianBlur stdDeviation="2"/>
<feComposite in2="hardAlpha" operator="out"/>
<feColorMatrix type="matrix" values="0 0 0 0 0 0 0 0 0 0 0 0 0 0 0 0 0 0 0.25 0"/>
<feBlend mode="normal" in2="BackgroundImageFix" result="effect1_dropShadow_12_623"/>
<feBlend mode="normal" in="SourceGraphic" in2="effect1_dropShadow_12_623" result="shape"/>
</filter>
</defs>
</svg>
