<svg width="100" height="100" viewBox="0 0 100 100" fill="none" xmlns="http://www.w3.org/2000/svg">
<path d="M81.8042 33.3209C81.8583 34.05 81.8583 34.775 81.8583 35.5C81.8583 57.6875 64.9708 83.2542 34.1083 83.2542C24.6 83.2542 15.7667 80.5 8.33333 75.7167C9.68333 75.8709 10.9833 75.925 12.3875 75.925C19.9416 75.9433 27.2819 73.4173 33.225 68.7542C29.7226 68.6908 26.3274 67.5353 23.5135 65.4489C20.6996 63.3626 18.6074 60.4496 17.5292 57.1167C18.5667 57.2709 19.6083 57.375 20.7 57.375C22.2042 57.375 23.7167 57.1667 25.1208 56.8042C21.3198 56.0367 17.902 53.9765 15.4484 50.9737C12.9948 47.9709 11.657 44.2111 11.6625 40.3334V40.125C13.9 41.3709 16.4958 42.15 19.2458 42.2542C16.942 40.7233 15.053 38.6459 13.7472 36.2075C12.4415 33.769 11.7596 31.0452 11.7625 28.2792C11.7625 25.1625 12.5917 22.3042 14.0458 19.8125C18.2631 25.0001 23.5229 29.244 29.4847 32.2694C35.4465 35.2948 41.9773 37.0342 48.6542 37.375C48.3958 36.125 48.2375 34.8292 48.2375 33.5292C48.2364 31.3249 48.6698 29.1419 49.5128 27.1052C50.3559 25.0684 51.5921 23.2178 53.1508 21.6591C54.7095 20.1004 56.5601 18.8642 58.5968 18.0212C60.6336 17.1781 62.8165 16.7448 65.0208 16.7459C69.8542 16.7459 74.2167 18.7709 77.2833 22.0459C81.0407 21.3193 84.6439 19.9476 87.9333 17.9917C86.6809 21.8701 84.0573 25.1588 80.5542 27.2417C83.8866 26.8616 87.1435 25.9852 90.2167 24.6417C87.9214 27.9879 85.0772 30.9223 81.8042 33.3209Z" fill="white"/>
</svg>
