<svg width="100" height="100" viewBox="0 0 100 100" fill="none" xmlns="http://www.w3.org/2000/svg">
<path d="M89.9708 30.0125C89.4962 28.2516 88.5688 26.6458 87.2807 25.3548C85.9926 24.0638 84.3889 23.1327 82.6292 22.6541C76.1042 20.8624 50 20.8333 50 20.8333C50 20.8333 23.9 20.8041 17.3708 22.5166C15.6122 23.0172 14.0118 23.9615 12.7232 25.2588C11.4346 26.5562 10.5012 28.163 10.0125 29.925C8.29167 36.45 8.275 49.9833 8.275 49.9833C8.275 49.9833 8.25833 63.5833 9.96667 70.0416C10.925 73.6124 13.7375 76.4333 17.3125 77.3958C23.9042 79.1875 49.9375 79.2166 49.9375 79.2166C49.9375 79.2166 76.0417 79.2458 82.5667 77.5374C84.3271 77.0597 85.9323 76.1307 87.2236 74.8424C88.5148 73.554 89.4474 71.9509 89.9292 70.1916C91.6542 63.6708 91.6667 50.1416 91.6667 50.1416C91.6667 50.1416 91.75 36.5374 89.9708 30.0125ZM41.65 62.5208L41.6708 37.5208L63.3667 50.0416L41.65 62.5208Z" fill="white"/>
</svg>
