<svg width="50" height="50" viewBox="0 0 50 50" fill="none" xmlns="http://www.w3.org/2000/svg">
<path d="M39.5833 4.16667H10.4167C9.3116 4.16667 8.25179 4.60566 7.47039 5.38706C6.68899 6.16846 6.25 7.22827 6.25 8.33334V35.4167C6.25 36.5217 6.68899 37.5816 7.47039 38.363C8.25179 39.1444 9.3116 39.5833 10.4167 39.5833H18.75L25 45.8333L31.25 39.5833H39.5833C40.6884 39.5833 41.7482 39.1444 42.5296 38.363C43.311 37.5816 43.75 36.5217 43.75 35.4167V8.33334C43.75 7.22827 43.311 6.16846 42.5296 5.38706C41.7482 4.60566 40.6884 4.16667 39.5833 4.16667ZM25 10.4167C28.5979 10.4167 31.25 13.0667 31.25 16.6667C31.25 20.2667 28.5979 22.9167 25 22.9167C21.4042 22.9167 18.75 20.2667 18.75 16.6667C18.75 13.0667 21.4042 10.4167 25 10.4167ZM14.9521 33.3333C16.1146 29.7438 20.1521 27.0833 25 27.0833C29.8479 27.0833 33.8875 29.7438 35.0479 33.3333H14.9521Z" fill="#00A7E3"/>
</svg>
