<svg width="51" height="51" viewBox="0 0 51 51" fill="none" xmlns="http://www.w3.org/2000/svg">
<path d="M45.4854 15.5062C45.2481 14.6258 44.7843 13.8229 44.1403 13.1774C43.4963 12.5319 42.6944 12.0664 41.8145 11.8271C38.552 10.9312 25.5 10.9166 25.5 10.9166C25.5 10.9166 12.45 10.9021 9.18537 11.7583C8.30605 12.0086 7.50583 12.4808 6.86155 13.1294C6.21727 13.7781 5.75055 14.5815 5.5062 15.4625C4.64579 18.725 4.63745 25.4916 4.63745 25.4916C4.63745 25.4916 4.62912 32.2916 5.48329 35.5208C5.96245 37.3062 7.36871 38.7166 9.15621 39.1979C12.452 40.0937 25.4687 40.1083 25.4687 40.1083C25.4687 40.1083 38.5208 40.1229 41.7833 39.2687C42.6635 39.0299 43.4661 38.5654 44.1117 37.9212C44.7574 37.277 45.2237 36.4755 45.4645 35.5958C46.327 32.3354 46.3333 25.5708 46.3333 25.5708C46.3333 25.5708 46.375 18.7687 45.4854 15.5062ZM21.325 31.7604L21.3354 19.2604L32.1833 25.5208L21.325 31.7604Z" fill="white"/>
</svg>
