<svg width="50" height="50" viewBox="0 0 50 50" fill="none" xmlns="http://www.w3.org/2000/svg">
<path d="M45.7223 19.1229C45.5914 18.7372 45.3503 18.3983 45.029 18.148C44.7076 17.8978 44.32 17.7471 43.914 17.7146L32.0369 16.7708L26.8973 5.39375C26.7336 5.02732 26.4674 4.71609 26.1307 4.49762C25.7941 4.27915 25.4014 4.16279 25.0001 4.16257C24.5988 4.16235 24.2059 4.27828 23.869 4.49638C23.5321 4.71448 23.2656 5.02541 23.1015 5.39167L17.9619 16.7708L6.08482 17.7146C5.68577 17.7462 5.30427 17.8921 4.98598 18.1349C4.66768 18.3776 4.42606 18.7069 4.29001 19.0834C4.15397 19.4599 4.12927 19.8676 4.21887 20.2577C4.30847 20.6479 4.50857 21.0039 4.79524 21.2833L13.5723 29.8396L10.4682 43.2813C10.3739 43.6881 10.4041 44.1139 10.5549 44.5034C10.7056 44.8929 10.97 45.2281 11.3136 45.4655C11.6572 45.7029 12.0642 45.8315 12.4819 45.8347C12.8995 45.8379 13.3085 45.7155 13.6557 45.4833L24.9994 37.9208L36.3432 45.4833C36.698 45.719 37.1165 45.8402 37.5424 45.8309C37.9682 45.8216 38.381 45.682 38.7252 45.4311C39.0694 45.1802 39.3285 44.8298 39.4677 44.4272C39.6068 44.0246 39.6193 43.5891 39.5036 43.1792L35.6932 29.8458L45.1432 21.3417C45.7619 20.7833 45.989 19.9125 45.7223 19.1229Z" fill="#EE913C"/>
</svg>
