<svg width="51" height="51" viewBox="0 0 51 51" fill="none" xmlns="http://www.w3.org/2000/svg">
<path d="M25.498 15.8688C22.943 15.8688 20.4928 16.8837 18.6862 18.6903C16.8796 20.4969 15.8646 22.9472 15.8646 25.5021C15.8646 28.057 16.8796 30.5073 18.6862 32.3139C20.4928 34.1205 22.943 35.1354 25.498 35.1354C28.0529 35.1354 30.5032 34.1205 32.3098 32.3139C34.1164 30.5073 35.1313 28.057 35.1313 25.5021C35.1313 22.9472 34.1164 20.4969 32.3098 18.6903C30.5032 16.8837 28.0529 15.8688 25.498 15.8688ZM25.498 31.7584C23.8381 31.7584 22.2463 31.099 21.0726 29.9253C19.899 28.7517 19.2396 27.1598 19.2396 25.5C19.2396 23.8402 19.899 22.2484 21.0726 21.0747C22.2463 19.9011 23.8381 19.2417 25.498 19.2417C27.1578 19.2417 28.7496 19.9011 29.9233 21.0747C31.0969 22.2484 31.7563 23.8402 31.7563 25.5C31.7563 27.1598 31.0969 28.7517 29.9233 29.9253C28.7496 31.099 27.1578 31.7584 25.498 31.7584Z" fill="white"/>
<path d="M35.5126 17.7604C36.7529 17.7604 37.7584 16.7549 37.7584 15.5146C37.7584 14.2742 36.7529 13.2687 35.5126 13.2687C34.2722 13.2687 33.2667 14.2742 33.2667 15.5146C33.2667 16.7549 34.2722 17.7604 35.5126 17.7604Z" fill="white"/>
<path d="M43.2771 13.2313C42.7948 11.9858 42.0578 10.8548 41.1132 9.91056C40.1686 8.96634 39.0373 8.22975 37.7917 7.74794C36.334 7.20076 34.7941 6.9049 33.2375 6.87294C31.2312 6.78544 30.5958 6.76044 25.5083 6.76044C20.4208 6.76044 19.7687 6.76044 17.7792 6.87294C16.2237 6.90326 14.6849 7.19919 13.2292 7.74794C11.9832 8.22919 10.8516 8.96558 9.90693 9.90987C8.96228 10.8542 8.22546 11.9855 7.74373 13.2313C7.19645 14.6888 6.90126 16.2288 6.87082 17.7854C6.78123 19.7896 6.75415 20.425 6.75415 25.5146C6.75415 30.6021 6.75415 31.25 6.87082 33.2438C6.90207 34.8021 7.19582 36.3396 7.74373 37.8C8.22681 39.0454 8.96435 40.1762 9.90923 41.1204C10.8541 42.0645 11.9855 42.8012 13.2312 43.2833C14.6842 43.8525 16.2237 44.1696 17.7833 44.2209C19.7896 44.3083 20.425 44.3354 25.5125 44.3354C30.6 44.3354 31.2521 44.3354 33.2417 44.2209C34.7981 44.1892 36.338 43.894 37.7958 43.3479C39.0411 42.865 40.1721 42.1278 41.1166 41.1833C42.0611 40.2388 42.7983 39.1078 43.2812 37.8625C43.8292 36.4042 44.1229 34.8667 44.1542 33.3084C44.2437 31.3042 44.2708 30.6688 44.2708 25.5792C44.2708 20.4896 44.2708 19.8438 44.1542 17.85C44.1299 16.2714 43.8332 14.7089 43.2771 13.2313ZM40.7396 33.0896C40.7261 34.2902 40.507 35.4797 40.0917 36.6063C39.7788 37.4164 39.2998 38.1521 38.6856 38.766C38.0713 39.3799 37.3353 39.8585 36.525 40.1708C35.4109 40.5843 34.2341 40.8034 33.0458 40.8188C31.0667 40.9104 30.5083 40.9334 25.4333 40.9334C20.3542 40.9334 19.8354 40.9333 17.8187 40.8188C16.6311 40.8042 15.4548 40.585 14.3417 40.1708C13.5285 39.8604 12.7896 39.3827 12.1727 38.7687C11.5558 38.1547 11.0746 37.418 10.7604 36.6063C10.3509 35.4918 10.1319 34.3164 10.1125 33.1292C10.0229 31.15 10.0021 30.5917 10.0021 25.5167C10.0021 20.4396 10.0021 19.9209 10.1125 17.9021C10.1259 16.7021 10.3451 15.5134 10.7604 14.3875C11.3958 12.7438 12.6979 11.45 14.3417 10.8209C15.4554 10.4086 16.6313 10.1895 17.8187 10.1729C19.8 10.0834 20.3562 10.0584 25.4333 10.0584C30.5104 10.0584 31.0312 10.0584 33.0458 10.1729C34.2342 10.1872 35.4111 10.4064 36.525 10.8209C37.3353 11.1339 38.0711 11.6129 38.6853 12.2272C39.2996 12.8414 39.7786 13.5773 40.0917 14.3875C40.5011 15.502 40.7202 16.6774 40.7396 17.8646C40.8292 19.8459 40.8521 20.4021 40.8521 25.4792C40.8521 30.5542 40.8521 31.1 40.7625 33.0917H40.7396V33.0896Z" fill="white"/>
</svg>
