<svg width="51" height="51" viewBox="0 0 51 51" fill="none" xmlns="http://www.w3.org/2000/svg">
<g filter="url(#filter0_d_18_133)">
<path d="M41.402 17.1604C41.4291 17.525 41.4291 17.8875 41.4291 18.25C41.4291 29.3438 32.9854 42.1271 17.5541 42.1271C12.8 42.1271 8.38329 40.75 4.66663 38.3583C5.34163 38.4354 5.99163 38.4625 6.69371 38.4625C10.4708 38.4716 14.1409 37.2086 17.1125 34.8771C15.3613 34.8454 13.6637 34.2676 12.2567 33.2245C10.8498 32.1813 9.80368 30.7248 9.26454 29.0583C9.78329 29.1354 10.3041 29.1875 10.85 29.1875C11.602 29.1875 12.3583 29.0833 13.0604 28.9021C11.1599 28.5184 9.45095 27.4882 8.22416 25.9869C6.99738 24.4855 6.32849 22.6055 6.33121 20.6667V20.5625C7.44996 21.1854 8.74788 21.575 10.1229 21.6271C8.97098 20.8616 8.02646 19.823 7.37358 18.6037C6.72071 17.3845 6.37978 16.0226 6.38121 14.6396C6.38121 13.0813 6.79579 11.6521 7.52288 10.4063C9.6315 13.0001 12.2614 15.122 15.2423 16.6347C18.2232 18.1474 21.4886 19.0171 24.827 19.1875C24.6979 18.5625 24.6187 17.9146 24.6187 17.2646C24.6182 16.1624 24.8348 15.071 25.2564 14.0526C25.6779 13.0342 26.296 12.1089 27.0753 11.3296C27.8547 10.5502 28.78 9.93211 29.7984 9.51059C30.8167 9.08906 31.9082 8.87238 33.0104 8.87293C35.427 8.87293 37.6083 9.88543 39.1416 11.5229C41.0203 11.1596 42.8219 10.4738 44.4666 9.49584C43.8404 11.435 42.5286 13.0794 40.777 14.1208C42.4433 13.9308 44.0717 13.4926 45.6083 12.8208C44.4606 14.494 43.0385 15.9611 41.402 17.1604Z" fill="white"/>
</g>
<defs>
<filter id="filter0_d_18_133" x="-3.5" y="0.5" width="58" height="58" filterUnits="userSpaceOnUse" color-interpolation-filters="sRGB">
<feFlood flood-opacity="0" result="BackgroundImageFix"/>
<feColorMatrix in="SourceAlpha" type="matrix" values="0 0 0 0 0 0 0 0 0 0 0 0 0 0 0 0 0 0 127 0" result="hardAlpha"/>
<feOffset dy="4"/>
<feGaussianBlur stdDeviation="2"/>
<feComposite in2="hardAlpha" operator="out"/>
<feColorMatrix type="matrix" values="0 0 0 0 0 0 0 0 0 0 0 0 0 0 0 0 0 0 0.25 0"/>
<feBlend mode="normal" in2="BackgroundImageFix" result="effect1_dropShadow_18_133"/>
<feBlend mode="normal" in="SourceGraphic" in2="effect1_dropShadow_18_133" result="shape"/>
</filter>
</defs>
</svg>
